<mxfile host="app.diagrams.net" agent="Mozilla/5.0 (Windows NT 10.0; Win64; x64) AppleWebKit/537.36 (KHTML, like Gecko) Chrome/131.0.0.0 Safari/537.36" version="25.0.1">
  <diagram id="C5RBs43oDa-KdzZeNtuy" name="Simulation">
    <mxGraphModel dx="1499" dy="731" grid="1" gridSize="10" guides="1" tooltips="1" connect="1" arrows="1" fold="1" page="1" pageScale="1" pageWidth="827" pageHeight="1169" math="0" shadow="0">
      <root>
        <mxCell id="WIyWlLk6GJQsqaUBKTNV-0" />
        <mxCell id="WIyWlLk6GJQsqaUBKTNV-1" parent="WIyWlLk6GJQsqaUBKTNV-0" />
        <mxCell id="0CTnTl75vqh0oRSoPkbF-4" value="&amp;lt;&amp;lt;use&amp;gt;&amp;gt;" style="endArrow=open;startArrow=none;endFill=0;startFill=0;endSize=8;html=1;verticalAlign=bottom;dashed=1;labelBackgroundColor=none;rounded=0;exitX=0;exitY=0.5;exitDx=0;exitDy=0;entryX=0.5;entryY=0;entryDx=0;entryDy=0;" parent="WIyWlLk6GJQsqaUBKTNV-1" source="C2V4Gt5A_Fa9hkwZDNJC-235" target="zkfFHV4jXpPFQw0GAbJ--6" edge="1">
          <mxGeometry width="160" relative="1" as="geometry">
            <mxPoint x="1490" y="1207" as="sourcePoint" />
            <mxPoint x="410" y="1180" as="targetPoint" />
            <Array as="points">
              <mxPoint x="380" y="1240" />
            </Array>
          </mxGeometry>
        </mxCell>
        <mxCell id="zkfFHV4jXpPFQw0GAbJ--0" value="BaseAgent" style="swimlane;fontStyle=1;align=center;verticalAlign=top;childLayout=stackLayout;horizontal=1;startSize=26;horizontalStack=0;resizeParent=1;resizeLast=0;collapsible=1;marginBottom=0;rounded=0;shadow=0;strokeWidth=1;" parent="WIyWlLk6GJQsqaUBKTNV-1" vertex="1">
          <mxGeometry x="280" y="640" width="200" height="340" as="geometry">
            <mxRectangle x="230" y="140" width="160" height="26" as="alternateBounds" />
          </mxGeometry>
        </mxCell>
        <mxCell id="zkfFHV4jXpPFQw0GAbJ--1" value="+ num_agents: Int" style="text;align=left;verticalAlign=top;spacingLeft=4;spacingRight=4;overflow=hidden;rotatable=0;points=[[0,0.5],[1,0.5]];portConstraint=eastwest;" parent="zkfFHV4jXpPFQw0GAbJ--0" vertex="1">
          <mxGeometry y="26" width="200" height="26" as="geometry" />
        </mxCell>
        <mxCell id="zkfFHV4jXpPFQw0GAbJ--2" value="+ path: String" style="text;align=left;verticalAlign=top;spacingLeft=4;spacingRight=4;overflow=hidden;rotatable=0;points=[[0,0.5],[1,0.5]];portConstraint=eastwest;rounded=0;shadow=0;html=0;" parent="zkfFHV4jXpPFQw0GAbJ--0" vertex="1">
          <mxGeometry y="52" width="200" height="26" as="geometry" />
        </mxCell>
        <mxCell id="zkfFHV4jXpPFQw0GAbJ--3" value="+ universe: Universe" style="text;align=left;verticalAlign=top;spacingLeft=4;spacingRight=4;overflow=hidden;rotatable=0;points=[[0,0.5],[1,0.5]];portConstraint=eastwest;rounded=0;shadow=0;html=0;" parent="zkfFHV4jXpPFQw0GAbJ--0" vertex="1">
          <mxGeometry y="78" width="200" height="26" as="geometry" />
        </mxCell>
        <mxCell id="sRIITRi0GRUFGnnZ8jRt-0" value="- is_constructed: Bool" style="text;align=left;verticalAlign=top;spacingLeft=4;spacingRight=4;overflow=hidden;rotatable=0;points=[[0,0.5],[1,0.5]];portConstraint=eastwest;rounded=0;shadow=0;html=0;" parent="zkfFHV4jXpPFQw0GAbJ--0" vertex="1">
          <mxGeometry y="104" width="200" height="26" as="geometry" />
        </mxCell>
        <mxCell id="zkfFHV4jXpPFQw0GAbJ--4" value="" style="line;html=1;strokeWidth=1;align=left;verticalAlign=middle;spacingTop=-1;spacingLeft=3;spacingRight=3;rotatable=0;labelPosition=right;points=[];portConstraint=eastwest;" parent="zkfFHV4jXpPFQw0GAbJ--0" vertex="1">
          <mxGeometry y="130" width="200" height="8" as="geometry" />
        </mxCell>
        <mxCell id="zkfFHV4jXpPFQw0GAbJ--5" value="$ __init__(&#xa;    num_agents: Int&#xa;)" style="text;align=left;verticalAlign=top;spacingLeft=4;spacingRight=4;overflow=hidden;rotatable=0;points=[[0,0.5],[1,0.5]];portConstraint=eastwest;" parent="zkfFHV4jXpPFQw0GAbJ--0" vertex="1">
          <mxGeometry y="138" width="200" height="52" as="geometry" />
        </mxCell>
        <mxCell id="WYmgZ2lt331Zo_KYKc5n-0" value="+ construct(&#xa;    universe: Universe,&#xa;): None" style="text;align=left;verticalAlign=top;spacingLeft=4;spacingRight=4;overflow=hidden;rotatable=0;points=[[0,0.5],[1,0.5]];portConstraint=eastwest;" parent="zkfFHV4jXpPFQw0GAbJ--0" vertex="1">
          <mxGeometry y="190" width="200" height="50" as="geometry" />
        </mxCell>
        <mxCell id="WYmgZ2lt331Zo_KYKc5n-36" value="+ step(&#xa;    actions: Actions,&#xa;): Observations" style="text;align=left;verticalAlign=top;spacingLeft=4;spacingRight=4;overflow=hidden;rotatable=0;points=[[0,0.5],[1,0.5]];portConstraint=eastwest;" parent="zkfFHV4jXpPFQw0GAbJ--0" vertex="1">
          <mxGeometry y="240" width="200" height="56" as="geometry" />
        </mxCell>
        <mxCell id="C2V4Gt5A_Fa9hkwZDNJC-0" value="+ get_observations(&#xa;): Observations" style="text;align=left;verticalAlign=top;spacingLeft=4;spacingRight=4;overflow=hidden;rotatable=0;points=[[0,0.5],[1,0.5]];portConstraint=eastwest;" parent="zkfFHV4jXpPFQw0GAbJ--0" vertex="1">
          <mxGeometry y="296" width="200" height="44" as="geometry" />
        </mxCell>
        <mxCell id="zkfFHV4jXpPFQw0GAbJ--6" value="NewtonBaseAgent" style="swimlane;fontStyle=1;align=center;verticalAlign=top;childLayout=stackLayout;horizontal=1;startSize=26;horizontalStack=0;resizeParent=1;resizeLast=0;collapsible=1;marginBottom=0;rounded=0;shadow=0;strokeWidth=1;" parent="WIyWlLk6GJQsqaUBKTNV-1" vertex="1">
          <mxGeometry x="280" y="1280" width="200" height="100" as="geometry">
            <mxRectangle x="130" y="380" width="160" height="26" as="alternateBounds" />
          </mxGeometry>
        </mxCell>
        <mxCell id="C2V4Gt5A_Fa9hkwZDNJC-16" value="+ imu: VecIMU" style="text;align=left;verticalAlign=top;spacingLeft=4;spacingRight=4;overflow=hidden;rotatable=0;points=[[0,0.5],[1,0.5]];portConstraint=eastwest;" parent="zkfFHV4jXpPFQw0GAbJ--6" vertex="1">
          <mxGeometry y="26" width="200" height="26" as="geometry" />
        </mxCell>
        <mxCell id="C2V4Gt5A_Fa9hkwZDNJC-17" value="+ joint_controller: &#xa;    VecJointsController" style="text;align=left;verticalAlign=top;spacingLeft=4;spacingRight=4;overflow=hidden;rotatable=0;points=[[0,0.5],[1,0.5]];portConstraint=eastwest;" parent="zkfFHV4jXpPFQw0GAbJ--6" vertex="1">
          <mxGeometry y="52" width="200" height="38" as="geometry" />
        </mxCell>
        <mxCell id="zkfFHV4jXpPFQw0GAbJ--9" value="" style="line;html=1;strokeWidth=1;align=left;verticalAlign=middle;spacingTop=-1;spacingLeft=3;spacingRight=3;rotatable=0;labelPosition=right;points=[];portConstraint=eastwest;" parent="zkfFHV4jXpPFQw0GAbJ--6" vertex="1">
          <mxGeometry y="90" width="200" height="8" as="geometry" />
        </mxCell>
        <mxCell id="zkfFHV4jXpPFQw0GAbJ--12" value="" style="endArrow=block;endSize=10;endFill=0;shadow=0;strokeWidth=1;rounded=0;curved=0;edgeStyle=elbowEdgeStyle;elbow=vertical;" parent="WIyWlLk6GJQsqaUBKTNV-1" source="zkfFHV4jXpPFQw0GAbJ--6" target="zkfFHV4jXpPFQw0GAbJ--0" edge="1">
          <mxGeometry width="160" relative="1" as="geometry">
            <mxPoint x="280" y="803" as="sourcePoint" />
            <mxPoint x="280" y="803" as="targetPoint" />
          </mxGeometry>
        </mxCell>
        <mxCell id="zkfFHV4jXpPFQw0GAbJ--13" value="NewtonVecAgent" style="swimlane;fontStyle=1;align=center;verticalAlign=top;childLayout=stackLayout;horizontal=1;startSize=26;horizontalStack=0;resizeParent=1;resizeLast=0;collapsible=1;marginBottom=0;rounded=0;shadow=0;strokeWidth=1;" parent="WIyWlLk6GJQsqaUBKTNV-1" vertex="1">
          <mxGeometry x="400" y="1440" width="160" height="34" as="geometry">
            <mxRectangle x="340" y="380" width="170" height="26" as="alternateBounds" />
          </mxGeometry>
        </mxCell>
        <mxCell id="zkfFHV4jXpPFQw0GAbJ--15" value="" style="line;html=1;strokeWidth=1;align=left;verticalAlign=middle;spacingTop=-1;spacingLeft=3;spacingRight=3;rotatable=0;labelPosition=right;points=[];portConstraint=eastwest;" parent="zkfFHV4jXpPFQw0GAbJ--13" vertex="1">
          <mxGeometry y="26" width="160" height="8" as="geometry" />
        </mxCell>
        <mxCell id="zkfFHV4jXpPFQw0GAbJ--16" value="" style="endArrow=block;endSize=10;endFill=0;shadow=0;strokeWidth=1;rounded=0;curved=0;edgeStyle=elbowEdgeStyle;elbow=vertical;exitX=0.5;exitY=0;exitDx=0;exitDy=0;entryX=0.5;entryY=1;entryDx=0;entryDy=0;" parent="WIyWlLk6GJQsqaUBKTNV-1" source="zkfFHV4jXpPFQw0GAbJ--13" target="zkfFHV4jXpPFQw0GAbJ--6" edge="1">
          <mxGeometry width="160" relative="1" as="geometry">
            <mxPoint x="290" y="1213" as="sourcePoint" />
            <mxPoint x="400" y="1500" as="targetPoint" />
            <Array as="points">
              <mxPoint x="420" y="1400" />
            </Array>
          </mxGeometry>
        </mxCell>
        <mxCell id="WYmgZ2lt331Zo_KYKc5n-1" value="VecIMU" style="swimlane;fontStyle=1;align=center;verticalAlign=top;childLayout=stackLayout;horizontal=1;startSize=26;horizontalStack=0;resizeParent=1;resizeLast=0;collapsible=1;marginBottom=0;rounded=0;shadow=0;strokeWidth=1;" parent="WIyWlLk6GJQsqaUBKTNV-1" vertex="1">
          <mxGeometry x="920" y="1360" width="200" height="530" as="geometry">
            <mxRectangle x="230" y="140" width="160" height="26" as="alternateBounds" />
          </mxGeometry>
        </mxCell>
        <mxCell id="WYmgZ2lt331Zo_KYKc5n-2" value="+ path_expr: String" style="text;align=left;verticalAlign=top;spacingLeft=4;spacingRight=4;overflow=hidden;rotatable=0;points=[[0,0.5],[1,0.5]];portConstraint=eastwest;" parent="WYmgZ2lt331Zo_KYKc5n-1" vertex="1">
          <mxGeometry y="26" width="200" height="26" as="geometry" />
        </mxCell>
        <mxCell id="H8tCilP86C6Yw00kv8IR-4" value="+ universe: Universe" style="text;align=left;verticalAlign=top;spacingLeft=4;spacingRight=4;overflow=hidden;rotatable=0;points=[[0,0.5],[1,0.5]];portConstraint=eastwest;" parent="WYmgZ2lt331Zo_KYKc5n-1" vertex="1">
          <mxGeometry y="52" width="200" height="26" as="geometry" />
        </mxCell>
        <mxCell id="WYmgZ2lt331Zo_KYKc5n-3" value="+ local_position: pt.Tensor" style="text;align=left;verticalAlign=top;spacingLeft=4;spacingRight=4;overflow=hidden;rotatable=0;points=[[0,0.5],[1,0.5]];portConstraint=eastwest;rounded=0;shadow=0;html=0;" parent="WYmgZ2lt331Zo_KYKc5n-1" vertex="1">
          <mxGeometry y="78" width="200" height="26" as="geometry" />
        </mxCell>
        <mxCell id="WYmgZ2lt331Zo_KYKc5n-4" value="+ local_rotation: pt.Tensor" style="text;align=left;verticalAlign=top;spacingLeft=4;spacingRight=4;overflow=hidden;rotatable=0;points=[[0,0.5],[1,0.5]];portConstraint=eastwest;rounded=0;shadow=0;html=0;" parent="WYmgZ2lt331Zo_KYKc5n-1" vertex="1">
          <mxGeometry y="104" width="200" height="26" as="geometry" />
        </mxCell>
        <mxCell id="WYmgZ2lt331Zo_KYKc5n-28" value="+ num_imus: Int" style="text;align=left;verticalAlign=top;spacingLeft=4;spacingRight=4;overflow=hidden;rotatable=0;points=[[0,0.5],[1,0.5]];portConstraint=eastwest;rounded=0;shadow=0;html=0;" parent="WYmgZ2lt331Zo_KYKc5n-1" vertex="1">
          <mxGeometry y="130" width="200" height="26" as="geometry" />
        </mxCell>
        <mxCell id="eILheGQvL8XLCJycdza4-1" value="- rigid_view: ov.RigidPrimView" style="text;align=left;verticalAlign=top;spacingLeft=4;spacingRight=4;overflow=hidden;rotatable=0;points=[[0,0.5],[1,0.5]];portConstraint=eastwest;rounded=0;shadow=0;html=0;" vertex="1" parent="WYmgZ2lt331Zo_KYKc5n-1">
          <mxGeometry y="156" width="200" height="26" as="geometry" />
        </mxCell>
        <mxCell id="C2V4Gt5A_Fa9hkwZDNJC-56" value="- noise_func: &#xa;    Function[Float]: Float" style="text;align=left;verticalAlign=top;spacingLeft=4;spacingRight=4;overflow=hidden;rotatable=0;points=[[0,0.5],[1,0.5]];portConstraint=eastwest;rounded=0;shadow=0;html=0;" parent="WYmgZ2lt331Zo_KYKc5n-1" vertex="1">
          <mxGeometry y="182" width="200" height="34" as="geometry" />
        </mxCell>
        <mxCell id="WYmgZ2lt331Zo_KYKc5n-9" value="- is_constructed: Bool" style="text;align=left;verticalAlign=top;spacingLeft=4;spacingRight=4;overflow=hidden;rotatable=0;points=[[0,0.5],[1,0.5]];portConstraint=eastwest;rounded=0;shadow=0;html=0;" parent="WYmgZ2lt331Zo_KYKc5n-1" vertex="1">
          <mxGeometry y="216" width="200" height="26" as="geometry" />
        </mxCell>
        <mxCell id="WYmgZ2lt331Zo_KYKc5n-5" value="" style="line;html=1;strokeWidth=1;align=left;verticalAlign=middle;spacingTop=-1;spacingLeft=3;spacingRight=3;rotatable=0;labelPosition=right;points=[];portConstraint=eastwest;" parent="WYmgZ2lt331Zo_KYKc5n-1" vertex="1">
          <mxGeometry y="242" width="200" height="8" as="geometry" />
        </mxCell>
        <mxCell id="WYmgZ2lt331Zo_KYKc5n-6" value="$ __init__(&#xa;    universe: Universe,&#xa;    local_pos: pt.Tensor, &#xa;    local_rot: pt.Tensor,&#xa;    noise_func: NoiseFunction,&#xa;)" style="text;align=left;verticalAlign=top;spacingLeft=4;spacingRight=4;overflow=hidden;rotatable=0;points=[[0,0.5],[1,0.5]];portConstraint=eastwest;" parent="WYmgZ2lt331Zo_KYKc5n-1" vertex="1">
          <mxGeometry y="250" width="200" height="90" as="geometry" />
        </mxCell>
        <mxCell id="WYmgZ2lt331Zo_KYKc5n-11" value="+ construct(&#xa;    path_expr: String, &#xa;): None" style="text;align=left;verticalAlign=top;spacingLeft=4;spacingRight=4;overflow=hidden;rotatable=0;points=[[0,0.5],[1,0.5]];portConstraint=eastwest;" parent="WYmgZ2lt331Zo_KYKc5n-1" vertex="1">
          <mxGeometry y="340" width="200" height="50" as="geometry" />
        </mxCell>
        <mxCell id="eILheGQvL8XLCJycdza4-2" value="+ reset(): IMUData" style="text;align=left;verticalAlign=top;spacingLeft=4;spacingRight=4;overflow=hidden;rotatable=0;points=[[0,0.5],[1,0.5]];portConstraint=eastwest;" vertex="1" parent="WYmgZ2lt331Zo_KYKc5n-1">
          <mxGeometry y="390" width="200" height="20" as="geometry" />
        </mxCell>
        <mxCell id="WYmgZ2lt331Zo_KYKc5n-12" value="+ get_data(&#xa;    recalculate: Bool,&#xa;): IMUData" style="text;align=left;verticalAlign=top;spacingLeft=4;spacingRight=4;overflow=hidden;rotatable=0;points=[[0,0.5],[1,0.5]];portConstraint=eastwest;" parent="WYmgZ2lt331Zo_KYKc5n-1" vertex="1">
          <mxGeometry y="410" width="200" height="48" as="geometry" />
        </mxCell>
        <mxCell id="H8tCilP86C6Yw00kv8IR-5" value="+ get_raw_data(&#xa;    recalculate: Bool,&#xa;): IMUData" style="text;align=left;verticalAlign=top;spacingLeft=4;spacingRight=4;overflow=hidden;rotatable=0;points=[[0,0.5],[1,0.5]];portConstraint=eastwest;" parent="WYmgZ2lt331Zo_KYKc5n-1" vertex="1">
          <mxGeometry y="458" width="200" height="48" as="geometry" />
        </mxCell>
        <mxCell id="H8tCilP86C6Yw00kv8IR-6" value="- update_data(): None" style="text;align=left;verticalAlign=top;spacingLeft=4;spacingRight=4;overflow=hidden;rotatable=0;points=[[0,0.5],[1,0.5]];portConstraint=eastwest;" parent="WYmgZ2lt331Zo_KYKc5n-1" vertex="1">
          <mxGeometry y="506" width="200" height="22" as="geometry" />
        </mxCell>
        <mxCell id="WYmgZ2lt331Zo_KYKc5n-13" value="VecJointsController" style="swimlane;fontStyle=1;align=center;verticalAlign=top;childLayout=stackLayout;horizontal=1;startSize=26;horizontalStack=0;resizeParent=1;resizeLast=0;collapsible=1;marginBottom=0;rounded=0;shadow=0;strokeWidth=1;" parent="WIyWlLk6GJQsqaUBKTNV-1" vertex="1">
          <mxGeometry x="640" y="1400" width="200" height="610" as="geometry">
            <mxRectangle x="950" y="110" width="160" height="26" as="alternateBounds" />
          </mxGeometry>
        </mxCell>
        <mxCell id="sRIITRi0GRUFGnnZ8jRt-6" value="+ path_expr: String" style="text;align=left;verticalAlign=top;spacingLeft=4;spacingRight=4;overflow=hidden;rotatable=0;points=[[0,0.5],[1,0.5]];portConstraint=eastwest;rounded=0;shadow=0;html=0;" parent="WYmgZ2lt331Zo_KYKc5n-13" vertex="1">
          <mxGeometry y="26" width="200" height="26" as="geometry" />
        </mxCell>
        <mxCell id="WYmgZ2lt331Zo_KYKc5n-25" value="+ universe: Universe" style="text;align=left;verticalAlign=top;spacingLeft=4;spacingRight=4;overflow=hidden;rotatable=0;points=[[0,0.5],[1,0.5]];portConstraint=eastwest;rounded=0;shadow=0;html=0;" parent="WYmgZ2lt331Zo_KYKc5n-13" vertex="1">
          <mxGeometry y="52" width="200" height="26" as="geometry" />
        </mxCell>
        <mxCell id="WYmgZ2lt331Zo_KYKc5n-29" value="- articulation_view:&#xa;    ov.ArticulationView" style="text;align=left;verticalAlign=top;spacingLeft=4;spacingRight=4;overflow=hidden;rotatable=0;points=[[0,0.5],[1,0.5]];portConstraint=eastwest;rounded=0;shadow=0;html=0;" parent="WYmgZ2lt331Zo_KYKc5n-13" vertex="1">
          <mxGeometry y="78" width="200" height="38" as="geometry" />
        </mxCell>
        <mxCell id="C2V4Gt5A_Fa9hkwZDNJC-57" value="- noise_func: NoiseFunction" style="text;align=left;verticalAlign=top;spacingLeft=4;spacingRight=4;overflow=hidden;rotatable=0;points=[[0,0.5],[1,0.5]];portConstraint=eastwest;rounded=0;shadow=0;html=0;" parent="WYmgZ2lt331Zo_KYKc5n-13" vertex="1">
          <mxGeometry y="116" width="200" height="28" as="geometry" />
        </mxCell>
        <mxCell id="sRIITRi0GRUFGnnZ8jRt-9" value="- target_joint_positions: pt.Torch" style="text;align=left;verticalAlign=top;spacingLeft=4;spacingRight=4;overflow=hidden;rotatable=0;points=[[0,0.5],[1,0.5]];portConstraint=eastwest;rounded=0;shadow=0;html=0;" parent="WYmgZ2lt331Zo_KYKc5n-13" vertex="1">
          <mxGeometry y="144" width="200" height="26" as="geometry" />
        </mxCell>
        <mxCell id="H8tCilP86C6Yw00kv8IR-2" value="- joint_constraints: gm.Box" style="text;align=left;verticalAlign=top;spacingLeft=4;spacingRight=4;overflow=hidden;rotatable=0;points=[[0,0.5],[1,0.5]];portConstraint=eastwest;rounded=0;shadow=0;html=0;" parent="WYmgZ2lt331Zo_KYKc5n-13" vertex="1">
          <mxGeometry y="170" width="200" height="26" as="geometry" />
        </mxCell>
        <mxCell id="WYmgZ2lt331Zo_KYKc5n-18" value="- is_constructed: Bool" style="text;align=left;verticalAlign=top;spacingLeft=4;spacingRight=4;overflow=hidden;rotatable=0;points=[[0,0.5],[1,0.5]];portConstraint=eastwest;rounded=0;shadow=0;html=0;" parent="WYmgZ2lt331Zo_KYKc5n-13" vertex="1">
          <mxGeometry y="196" width="200" height="26" as="geometry" />
        </mxCell>
        <mxCell id="WYmgZ2lt331Zo_KYKc5n-19" value="" style="line;html=1;strokeWidth=1;align=left;verticalAlign=middle;spacingTop=-1;spacingLeft=3;spacingRight=3;rotatable=0;labelPosition=right;points=[];portConstraint=eastwest;" parent="WYmgZ2lt331Zo_KYKc5n-13" vertex="1">
          <mxGeometry y="222" width="200" height="8" as="geometry" />
        </mxCell>
        <mxCell id="WYmgZ2lt331Zo_KYKc5n-20" value="$ __init__(&#xa;    universe: Universe,&#xa;    noise_func: NoiseFunction,&#xa;    joint_constraints: gm.Box,&#xa;)" style="text;align=left;verticalAlign=top;spacingLeft=4;spacingRight=4;overflow=hidden;rotatable=0;points=[[0,0.5],[1,0.5]];portConstraint=eastwest;" parent="WYmgZ2lt331Zo_KYKc5n-13" vertex="1">
          <mxGeometry y="230" width="200" height="80" as="geometry" />
        </mxCell>
        <mxCell id="WYmgZ2lt331Zo_KYKc5n-22" value="+ construct(&#xa;    path_expr: String,&#xa;): None" style="text;align=left;verticalAlign=top;spacingLeft=4;spacingRight=4;overflow=hidden;rotatable=0;points=[[0,0.5],[1,0.5]];portConstraint=eastwest;" parent="WYmgZ2lt331Zo_KYKc5n-13" vertex="1">
          <mxGeometry y="310" width="200" height="50" as="geometry" />
        </mxCell>
        <mxCell id="sRIITRi0GRUFGnnZ8jRt-7" value="+ step(&#xa;    joints_positions: pt.Tensor,&#xa;): None" style="text;align=left;verticalAlign=top;spacingLeft=4;spacingRight=4;overflow=hidden;rotatable=0;points=[[0,0.5],[1,0.5]];portConstraint=eastwest;" parent="WYmgZ2lt331Zo_KYKc5n-13" vertex="1">
          <mxGeometry y="360" width="200" height="58" as="geometry" />
        </mxCell>
        <mxCell id="sRIITRi0GRUFGnnZ8jRt-8" value="- apply_joint_constraints(&#xa;    joint_constraints: gm.Box,&#xa;    prim_paths: List[String],&#xa;    joint_names: List[String],&#xa;): None" style="text;align=left;verticalAlign=top;spacingLeft=4;spacingRight=4;overflow=hidden;rotatable=0;points=[[0,0.5],[1,0.5]];portConstraint=eastwest;" parent="WYmgZ2lt331Zo_KYKc5n-13" vertex="1">
          <mxGeometry y="418" width="200" height="76" as="geometry" />
        </mxCell>
        <mxCell id="H8tCilP86C6Yw00kv8IR-3" value="- apply_joint_constraints(&#xa;    joint_positions: pt.Tensor,&#xa;    joint_constraints: gm.Box,&#xa;    noise_function: NoiseFunction&#xa;): None" style="text;align=left;verticalAlign=top;spacingLeft=4;spacingRight=4;overflow=hidden;rotatable=0;points=[[0,0.5],[1,0.5]];portConstraint=eastwest;" parent="WYmgZ2lt331Zo_KYKc5n-13" vertex="1">
          <mxGeometry y="494" width="200" height="76" as="geometry" />
        </mxCell>
        <mxCell id="eILheGQvL8XLCJycdza4-0" value="- get_right_side_shoulder_indices(&#xa;): List[Int]" style="text;align=left;verticalAlign=top;spacingLeft=4;spacingRight=4;overflow=hidden;rotatable=0;points=[[0,0.5],[1,0.5]];portConstraint=eastwest;" vertex="1" parent="WYmgZ2lt331Zo_KYKc5n-13">
          <mxGeometry y="570" width="200" height="40" as="geometry" />
        </mxCell>
        <mxCell id="C2V4Gt5A_Fa9hkwZDNJC-9" value="NewtonSingleAgent" style="swimlane;fontStyle=1;align=center;verticalAlign=top;childLayout=stackLayout;horizontal=1;startSize=26;horizontalStack=0;resizeParent=1;resizeLast=0;collapsible=1;marginBottom=0;rounded=0;shadow=0;strokeWidth=1;" parent="WIyWlLk6GJQsqaUBKTNV-1" vertex="1">
          <mxGeometry x="200" y="1440" width="160" height="34" as="geometry">
            <mxRectangle x="340" y="380" width="170" height="26" as="alternateBounds" />
          </mxGeometry>
        </mxCell>
        <mxCell id="C2V4Gt5A_Fa9hkwZDNJC-10" value="" style="line;html=1;strokeWidth=1;align=left;verticalAlign=middle;spacingTop=-1;spacingLeft=3;spacingRight=3;rotatable=0;labelPosition=right;points=[];portConstraint=eastwest;" parent="C2V4Gt5A_Fa9hkwZDNJC-9" vertex="1">
          <mxGeometry y="26" width="160" height="8" as="geometry" />
        </mxCell>
        <mxCell id="C2V4Gt5A_Fa9hkwZDNJC-15" value="" style="endArrow=block;endSize=10;endFill=0;shadow=0;strokeWidth=1;rounded=0;curved=0;edgeStyle=elbowEdgeStyle;elbow=vertical;exitX=0.5;exitY=0;exitDx=0;exitDy=0;entryX=0.5;entryY=1;entryDx=0;entryDy=0;" parent="WIyWlLk6GJQsqaUBKTNV-1" source="C2V4Gt5A_Fa9hkwZDNJC-9" target="zkfFHV4jXpPFQw0GAbJ--6" edge="1">
          <mxGeometry width="160" relative="1" as="geometry">
            <mxPoint x="490" y="1450" as="sourcePoint" />
            <mxPoint x="350" y="1500" as="targetPoint" />
            <Array as="points">
              <mxPoint x="340" y="1400" />
            </Array>
          </mxGeometry>
        </mxCell>
        <mxCell id="C2V4Gt5A_Fa9hkwZDNJC-21" value="&amp;lt;&amp;lt;use&amp;gt;&amp;gt;" style="endArrow=open;startArrow=none;endFill=0;startFill=0;endSize=8;html=1;verticalAlign=bottom;dashed=1;labelBackgroundColor=none;rounded=0;exitX=1;exitY=0.5;exitDx=0;exitDy=0;entryX=0.5;entryY=0;entryDx=0;entryDy=0;" parent="WIyWlLk6GJQsqaUBKTNV-1" source="C2V4Gt5A_Fa9hkwZDNJC-16" target="WYmgZ2lt331Zo_KYKc5n-1" edge="1">
          <mxGeometry width="160" relative="1" as="geometry">
            <mxPoint x="660" y="1230" as="sourcePoint" />
            <mxPoint x="820" y="1230" as="targetPoint" />
            <Array as="points">
              <mxPoint x="1020" y="1320" />
            </Array>
          </mxGeometry>
        </mxCell>
        <mxCell id="C2V4Gt5A_Fa9hkwZDNJC-22" value="&amp;lt;&amp;lt;use&amp;gt;&amp;gt;" style="endArrow=open;startArrow=none;endFill=0;startFill=0;endSize=8;html=1;verticalAlign=bottom;dashed=1;labelBackgroundColor=none;rounded=0;exitX=1;exitY=0.5;exitDx=0;exitDy=0;entryX=0.5;entryY=0;entryDx=0;entryDy=0;" parent="WIyWlLk6GJQsqaUBKTNV-1" source="C2V4Gt5A_Fa9hkwZDNJC-17" target="WYmgZ2lt331Zo_KYKc5n-13" edge="1">
          <mxGeometry width="160" relative="1" as="geometry">
            <mxPoint x="470" y="1249" as="sourcePoint" />
            <mxPoint x="970" y="1290" as="targetPoint" />
            <Array as="points">
              <mxPoint x="740" y="1351" />
            </Array>
          </mxGeometry>
        </mxCell>
        <mxCell id="C2V4Gt5A_Fa9hkwZDNJC-27" value="BaseEnv" style="swimlane;fontStyle=1;align=center;verticalAlign=top;childLayout=stackLayout;horizontal=1;startSize=26;horizontalStack=0;resizeParent=1;resizeLast=0;collapsible=1;marginBottom=0;rounded=0;shadow=0;strokeWidth=1;" parent="WIyWlLk6GJQsqaUBKTNV-1" vertex="1">
          <mxGeometry x="1200" y="560" width="200" height="544" as="geometry">
            <mxRectangle x="230" y="140" width="160" height="26" as="alternateBounds" />
          </mxGeometry>
        </mxCell>
        <mxCell id="C2V4Gt5A_Fa9hkwZDNJC-40" value="+ num_envs: Int" style="text;align=left;verticalAlign=top;spacingLeft=4;spacingRight=4;overflow=hidden;rotatable=0;points=[[0,0.5],[1,0.5]];portConstraint=eastwest;rounded=0;shadow=0;html=0;" parent="C2V4Gt5A_Fa9hkwZDNJC-27" vertex="1">
          <mxGeometry y="26" width="200" height="30" as="geometry" />
        </mxCell>
        <mxCell id="C2V4Gt5A_Fa9hkwZDNJC-37" value="+ agent: BaseAgent" style="text;align=left;verticalAlign=top;spacingLeft=4;spacingRight=4;overflow=hidden;rotatable=0;points=[[0,0.5],[1,0.5]];portConstraint=eastwest;rounded=0;shadow=0;html=0;" parent="C2V4Gt5A_Fa9hkwZDNJC-27" vertex="1">
          <mxGeometry y="56" width="200" height="26" as="geometry" />
        </mxCell>
        <mxCell id="C2V4Gt5A_Fa9hkwZDNJC-30" value="+ universe: Universe" style="text;align=left;verticalAlign=top;spacingLeft=4;spacingRight=4;overflow=hidden;rotatable=0;points=[[0,0.5],[1,0.5]];portConstraint=eastwest;rounded=0;shadow=0;html=0;" parent="C2V4Gt5A_Fa9hkwZDNJC-27" vertex="1">
          <mxGeometry y="82" width="200" height="26" as="geometry" />
        </mxCell>
        <mxCell id="C2V4Gt5A_Fa9hkwZDNJC-29" value="+ domain_randomizer:&#xa;    BaseDomainRandomizer" style="text;align=left;verticalAlign=top;spacingLeft=4;spacingRight=4;overflow=hidden;rotatable=0;points=[[0,0.5],[1,0.5]];portConstraint=eastwest;rounded=0;shadow=0;html=0;" parent="C2V4Gt5A_Fa9hkwZDNJC-27" vertex="1">
          <mxGeometry y="108" width="200" height="40" as="geometry" />
        </mxCell>
        <mxCell id="C2V4Gt5A_Fa9hkwZDNJC-28" value="+ terrain_builders: &#xa;    List[TerrainBuilder]" style="text;align=left;verticalAlign=top;spacingLeft=4;spacingRight=4;overflow=hidden;rotatable=0;points=[[0,0.5],[1,0.5]];portConstraint=eastwest;" parent="C2V4Gt5A_Fa9hkwZDNJC-27" vertex="1">
          <mxGeometry y="148" width="200" height="42" as="geometry" />
        </mxCell>
        <mxCell id="sRIITRi0GRUFGnnZ8jRt-1" value="+ terrain_builds: List[TerrainBuild]" style="text;align=left;verticalAlign=top;spacingLeft=4;spacingRight=4;overflow=hidden;rotatable=0;points=[[0,0.5],[1,0.5]];portConstraint=eastwest;" parent="C2V4Gt5A_Fa9hkwZDNJC-27" vertex="1">
          <mxGeometry y="190" width="200" height="30" as="geometry" />
        </mxCell>
        <mxCell id="C2V4Gt5A_Fa9hkwZDNJC-31" value="" style="line;html=1;strokeWidth=1;align=left;verticalAlign=middle;spacingTop=-1;spacingLeft=3;spacingRight=3;rotatable=0;labelPosition=right;points=[];portConstraint=eastwest;" parent="C2V4Gt5A_Fa9hkwZDNJC-27" vertex="1">
          <mxGeometry y="220" width="200" height="8" as="geometry" />
        </mxCell>
        <mxCell id="C2V4Gt5A_Fa9hkwZDNJC-32" value="$ __init__(&#xa;    agent: BaseAgent,&#xa;    num_envs: Int, &#xa;    terrain_builders: &#xa;        List[TerrainBuilder], &#xa;    domain_randomizer:&#xa;        BaseDomainRandomizer,&#xa;)" style="text;align=left;verticalAlign=top;spacingLeft=4;spacingRight=4;overflow=hidden;rotatable=0;points=[[0,0.5],[1,0.5]];portConstraint=eastwest;" parent="C2V4Gt5A_Fa9hkwZDNJC-27" vertex="1">
          <mxGeometry y="228" width="200" height="122" as="geometry" />
        </mxCell>
        <mxCell id="C2V4Gt5A_Fa9hkwZDNJC-33" value="+ construct(&#xa;    universe: Universe,&#xa;): None" style="text;align=left;verticalAlign=top;spacingLeft=4;spacingRight=4;overflow=hidden;rotatable=0;points=[[0,0.5],[1,0.5]];portConstraint=eastwest;" parent="C2V4Gt5A_Fa9hkwZDNJC-27" vertex="1">
          <mxGeometry y="350" width="200" height="50" as="geometry" />
        </mxCell>
        <mxCell id="C2V4Gt5A_Fa9hkwZDNJC-34" value="+ step(&#xa;    actions: Actions,&#xa;): Observations" style="text;align=left;verticalAlign=top;spacingLeft=4;spacingRight=4;overflow=hidden;rotatable=0;points=[[0,0.5],[1,0.5]];portConstraint=eastwest;" parent="C2V4Gt5A_Fa9hkwZDNJC-27" vertex="1">
          <mxGeometry y="400" width="200" height="50" as="geometry" />
        </mxCell>
        <mxCell id="C2V4Gt5A_Fa9hkwZDNJC-35" value="+ reset(&#xa;    indices: Indices,    &#xa;): Observations" style="text;align=left;verticalAlign=top;spacingLeft=4;spacingRight=4;overflow=hidden;rotatable=0;points=[[0,0.5],[1,0.5]];portConstraint=eastwest;" parent="C2V4Gt5A_Fa9hkwZDNJC-27" vertex="1">
          <mxGeometry y="450" width="200" height="50" as="geometry" />
        </mxCell>
        <mxCell id="C2V4Gt5A_Fa9hkwZDNJC-36" value="+ gather_observations(&#xa;): Observations" style="text;align=left;verticalAlign=top;spacingLeft=4;spacingRight=4;overflow=hidden;rotatable=0;points=[[0,0.5],[1,0.5]];portConstraint=eastwest;" parent="C2V4Gt5A_Fa9hkwZDNJC-27" vertex="1">
          <mxGeometry y="500" width="200" height="44" as="geometry" />
        </mxCell>
        <mxCell id="C2V4Gt5A_Fa9hkwZDNJC-43" value="&amp;lt;&amp;lt;use&amp;gt;&amp;gt;" style="endArrow=open;startArrow=none;endFill=0;startFill=0;endSize=8;html=1;verticalAlign=bottom;dashed=1;labelBackgroundColor=none;rounded=0;exitX=0;exitY=0.5;exitDx=0;exitDy=0;entryX=0.5;entryY=0;entryDx=0;entryDy=0;" parent="WIyWlLk6GJQsqaUBKTNV-1" source="C2V4Gt5A_Fa9hkwZDNJC-37" target="zkfFHV4jXpPFQw0GAbJ--0" edge="1">
          <mxGeometry width="160" relative="1" as="geometry">
            <mxPoint x="470" y="1089" as="sourcePoint" />
            <mxPoint x="970" y="1130" as="targetPoint" />
            <Array as="points">
              <mxPoint x="380" y="625" />
            </Array>
          </mxGeometry>
        </mxCell>
        <mxCell id="C2V4Gt5A_Fa9hkwZDNJC-44" value="BaseTerrainBuilder" style="swimlane;fontStyle=1;align=center;verticalAlign=top;childLayout=stackLayout;horizontal=1;startSize=26;horizontalStack=0;resizeParent=1;resizeLast=0;collapsible=1;marginBottom=0;rounded=0;shadow=0;strokeWidth=1;" parent="WIyWlLk6GJQsqaUBKTNV-1" vertex="1">
          <mxGeometry x="1760" y="760" width="200" height="780" as="geometry">
            <mxRectangle x="950" y="110" width="160" height="26" as="alternateBounds" />
          </mxGeometry>
        </mxCell>
        <mxCell id="C2V4Gt5A_Fa9hkwZDNJC-45" value="+ size: pt.Tensor" style="text;align=left;verticalAlign=top;spacingLeft=4;spacingRight=4;overflow=hidden;rotatable=0;points=[[0,0.5],[1,0.5]];portConstraint=eastwest;rounded=0;shadow=0;html=0;" parent="C2V4Gt5A_Fa9hkwZDNJC-44" vertex="1">
          <mxGeometry y="26" width="200" height="26" as="geometry" />
        </mxCell>
        <mxCell id="C2V4Gt5A_Fa9hkwZDNJC-46" value="+ resolution: pt.Tensor[Int]" style="text;align=left;verticalAlign=top;spacingLeft=4;spacingRight=4;overflow=hidden;rotatable=0;points=[[0,0.5],[1,0.5]];portConstraint=eastwest;rounded=0;shadow=0;html=0;" parent="C2V4Gt5A_Fa9hkwZDNJC-44" vertex="1">
          <mxGeometry y="52" width="200" height="26" as="geometry" />
        </mxCell>
        <mxCell id="C2V4Gt5A_Fa9hkwZDNJC-58" value="+ height: Float" style="text;align=left;verticalAlign=top;spacingLeft=4;spacingRight=4;overflow=hidden;rotatable=0;points=[[0,0.5],[1,0.5]];portConstraint=eastwest;rounded=0;shadow=0;html=0;" parent="C2V4Gt5A_Fa9hkwZDNJC-44" vertex="1">
          <mxGeometry y="78" width="200" height="26" as="geometry" />
        </mxCell>
        <mxCell id="C2V4Gt5A_Fa9hkwZDNJC-59" value="+ root_path: String" style="text;align=left;verticalAlign=top;spacingLeft=4;spacingRight=4;overflow=hidden;rotatable=0;points=[[0,0.5],[1,0.5]];portConstraint=eastwest;rounded=0;shadow=0;html=0;" parent="C2V4Gt5A_Fa9hkwZDNJC-44" vertex="1">
          <mxGeometry y="104" width="200" height="26" as="geometry" />
        </mxCell>
        <mxCell id="C2V4Gt5A_Fa9hkwZDNJC-49" value="" style="line;html=1;strokeWidth=1;align=left;verticalAlign=middle;spacingTop=-1;spacingLeft=3;spacingRight=3;rotatable=0;labelPosition=right;points=[];portConstraint=eastwest;" parent="C2V4Gt5A_Fa9hkwZDNJC-44" vertex="1">
          <mxGeometry y="130" width="200" height="8" as="geometry" />
        </mxCell>
        <mxCell id="C2V4Gt5A_Fa9hkwZDNJC-50" value="$ __init__(&#xa;    size: pt.Tensor,&#xa;    resolution: pt.Tensor,&#xa;    height: Float,&#xa;    root_path: String,&#xa;)" style="text;align=left;verticalAlign=top;spacingLeft=4;spacingRight=4;overflow=hidden;rotatable=0;points=[[0,0.5],[1,0.5]];portConstraint=eastwest;" parent="C2V4Gt5A_Fa9hkwZDNJC-44" vertex="1">
          <mxGeometry y="138" width="200" height="92" as="geometry" />
        </mxCell>
        <mxCell id="C2V4Gt5A_Fa9hkwZDNJC-52" value="+ build_from_self(&#xa;    position: pt.Tensor,&#xa;): BaseTerrainBuild" style="text;align=left;verticalAlign=top;spacingLeft=4;spacingRight=4;overflow=hidden;rotatable=0;points=[[0,0.5],[1,0.5]];portConstraint=eastwest;" parent="C2V4Gt5A_Fa9hkwZDNJC-44" vertex="1">
          <mxGeometry y="230" width="200" height="50" as="geometry" />
        </mxCell>
        <mxCell id="C2V4Gt5A_Fa9hkwZDNJC-53" value="+ build(&#xa;    size: pt.Tensor,&#xa;    resolution: pt.Tensor,&#xa;    height: Float,&#xa;    root_path: String,&#xa;    position: pt.Tensor,&#xa;): BaseTerrainBuild" style="text;align=left;verticalAlign=top;spacingLeft=4;spacingRight=4;overflow=hidden;rotatable=0;points=[[0,0.5],[1,0.5]];portConstraint=eastwest;" parent="C2V4Gt5A_Fa9hkwZDNJC-44" vertex="1">
          <mxGeometry y="280" width="200" height="110" as="geometry" />
        </mxCell>
        <mxCell id="C2V4Gt5A_Fa9hkwZDNJC-54" value="- add_heightmap_to_world(&#xa;    height: Float,&#xa;    num_cols: Int,&#xa;    num_rows: Int,&#xa;    size: pt.Tensor,&#xa;    heightmap: pt.Tensor,&#xa;    position: pt.Tensor,&#xa;    root_path: String,&#xa;    builder_name: String,&#xa;): String" style="text;align=left;verticalAlign=top;spacingLeft=4;spacingRight=4;overflow=hidden;rotatable=0;points=[[0,0.5],[1,0.5]];portConstraint=eastwest;" parent="C2V4Gt5A_Fa9hkwZDNJC-44" vertex="1">
          <mxGeometry y="390" width="200" height="154" as="geometry" />
        </mxCell>
        <mxCell id="C2V4Gt5A_Fa9hkwZDNJC-60" value="- heightmap_to_mesh(&#xa;    height: Float,&#xa;    num_cols: Int,&#xa;    num_rows: Int,&#xa;    size: pt.Tensor,&#xa;    heightmap: pt.Tensor,&#xa;): Tuple[pt.Tensor, pt.Tensor]" style="text;align=left;verticalAlign=top;spacingLeft=4;spacingRight=4;overflow=hidden;rotatable=0;points=[[0,0.5],[1,0.5]];portConstraint=eastwest;" parent="C2V4Gt5A_Fa9hkwZDNJC-44" vertex="1">
          <mxGeometry y="544" width="200" height="110" as="geometry" />
        </mxCell>
        <mxCell id="C2V4Gt5A_Fa9hkwZDNJC-61" value="- add_mesh_to_world(&#xa;    vertices: pt.Tensor,&#xa;    triangles: pt.Tensor[Int],&#xa;    size: pt.Tensor,&#xa;    position: pt.Tensor,&#xa;    root_path: String,&#xa;    builder_name: String,&#xa;): None" style="text;align=left;verticalAlign=top;spacingLeft=4;spacingRight=4;overflow=hidden;rotatable=0;points=[[0,0.5],[1,0.5]];portConstraint=eastwest;" parent="C2V4Gt5A_Fa9hkwZDNJC-44" vertex="1">
          <mxGeometry y="654" width="200" height="120" as="geometry" />
        </mxCell>
        <mxCell id="C2V4Gt5A_Fa9hkwZDNJC-62" value="BaseTerrainBuild" style="swimlane;fontStyle=1;align=center;verticalAlign=top;childLayout=stackLayout;horizontal=1;startSize=26;horizontalStack=0;resizeParent=1;resizeLast=0;collapsible=1;marginBottom=0;rounded=0;shadow=0;strokeWidth=1;" parent="WIyWlLk6GJQsqaUBKTNV-1" vertex="1">
          <mxGeometry x="2040" y="800" width="200" height="284" as="geometry">
            <mxRectangle x="950" y="110" width="160" height="26" as="alternateBounds" />
          </mxGeometry>
        </mxCell>
        <mxCell id="C2V4Gt5A_Fa9hkwZDNJC-63" value="+ size: pt.Tensor" style="text;align=left;verticalAlign=top;spacingLeft=4;spacingRight=4;overflow=hidden;rotatable=0;points=[[0,0.5],[1,0.5]];portConstraint=eastwest;rounded=0;shadow=0;html=0;" parent="C2V4Gt5A_Fa9hkwZDNJC-62" vertex="1">
          <mxGeometry y="26" width="200" height="26" as="geometry" />
        </mxCell>
        <mxCell id="C2V4Gt5A_Fa9hkwZDNJC-64" value="+ resolution: pt.Tensor" style="text;align=left;verticalAlign=top;spacingLeft=4;spacingRight=4;overflow=hidden;rotatable=0;points=[[0,0.5],[1,0.5]];portConstraint=eastwest;rounded=0;shadow=0;html=0;" parent="C2V4Gt5A_Fa9hkwZDNJC-62" vertex="1">
          <mxGeometry y="52" width="200" height="26" as="geometry" />
        </mxCell>
        <mxCell id="C2V4Gt5A_Fa9hkwZDNJC-65" value="+ height: Float" style="text;align=left;verticalAlign=top;spacingLeft=4;spacingRight=4;overflow=hidden;rotatable=0;points=[[0,0.5],[1,0.5]];portConstraint=eastwest;rounded=0;shadow=0;html=0;" parent="C2V4Gt5A_Fa9hkwZDNJC-62" vertex="1">
          <mxGeometry y="78" width="200" height="26" as="geometry" />
        </mxCell>
        <mxCell id="C2V4Gt5A_Fa9hkwZDNJC-75" value="+ position: pt.Tensor" style="text;align=left;verticalAlign=top;spacingLeft=4;spacingRight=4;overflow=hidden;rotatable=0;points=[[0,0.5],[1,0.5]];portConstraint=eastwest;rounded=0;shadow=0;html=0;" parent="C2V4Gt5A_Fa9hkwZDNJC-62" vertex="1">
          <mxGeometry y="104" width="200" height="26" as="geometry" />
        </mxCell>
        <mxCell id="C2V4Gt5A_Fa9hkwZDNJC-66" value="+ path: String" style="text;align=left;verticalAlign=top;spacingLeft=4;spacingRight=4;overflow=hidden;rotatable=0;points=[[0,0.5],[1,0.5]];portConstraint=eastwest;rounded=0;shadow=0;html=0;" parent="C2V4Gt5A_Fa9hkwZDNJC-62" vertex="1">
          <mxGeometry y="130" width="200" height="26" as="geometry" />
        </mxCell>
        <mxCell id="C2V4Gt5A_Fa9hkwZDNJC-67" value="" style="line;html=1;strokeWidth=1;align=left;verticalAlign=middle;spacingTop=-1;spacingLeft=3;spacingRight=3;rotatable=0;labelPosition=right;points=[];portConstraint=eastwest;" parent="C2V4Gt5A_Fa9hkwZDNJC-62" vertex="1">
          <mxGeometry y="156" width="200" height="8" as="geometry" />
        </mxCell>
        <mxCell id="C2V4Gt5A_Fa9hkwZDNJC-68" value="$ __init__(&#xa;    size: pt.Tensor,&#xa;    resolution: pt.Tensor,&#xa;    height: Float,&#xa;    position: pt.Tensor,&#xa;    path: String,&#xa;)" style="text;align=left;verticalAlign=top;spacingLeft=4;spacingRight=4;overflow=hidden;rotatable=0;points=[[0,0.5],[1,0.5]];portConstraint=eastwest;" parent="C2V4Gt5A_Fa9hkwZDNJC-62" vertex="1">
          <mxGeometry y="164" width="200" height="120" as="geometry" />
        </mxCell>
        <mxCell id="C2V4Gt5A_Fa9hkwZDNJC-76" value="" style="endArrow=circlePlus;startArrow=none;endFill=0;startFill=0;endSize=8;html=1;labelBackgroundColor=none;rounded=0;exitX=1;exitY=0;exitDx=0;exitDy=0;entryX=0;entryY=0;entryDx=0;entryDy=0;" parent="WIyWlLk6GJQsqaUBKTNV-1" source="C2V4Gt5A_Fa9hkwZDNJC-44" target="C2V4Gt5A_Fa9hkwZDNJC-62" edge="1">
          <mxGeometry width="160" relative="1" as="geometry">
            <mxPoint x="1270" y="1620" as="sourcePoint" />
            <mxPoint x="2020" y="820" as="targetPoint" />
            <Array as="points">
              <mxPoint x="2000" y="760" />
            </Array>
          </mxGeometry>
        </mxCell>
        <mxCell id="C2V4Gt5A_Fa9hkwZDNJC-77" value="&amp;lt;&amp;lt;use&amp;gt;&amp;gt;" style="endArrow=open;startArrow=none;endFill=0;startFill=0;endSize=8;html=1;verticalAlign=bottom;dashed=1;labelBackgroundColor=none;rounded=0;entryX=0.5;entryY=0;entryDx=0;entryDy=0;exitX=1;exitY=0.5;exitDx=0;exitDy=0;" parent="WIyWlLk6GJQsqaUBKTNV-1" source="C2V4Gt5A_Fa9hkwZDNJC-28" target="C2V4Gt5A_Fa9hkwZDNJC-44" edge="1">
          <mxGeometry width="160" relative="1" as="geometry">
            <mxPoint x="1270" y="620" as="sourcePoint" />
            <mxPoint x="1570" y="660" as="targetPoint" />
            <Array as="points">
              <mxPoint x="1860" y="730" />
            </Array>
          </mxGeometry>
        </mxCell>
        <mxCell id="C2V4Gt5A_Fa9hkwZDNJC-78" value="BaseDomainRandomizer" style="swimlane;fontStyle=1;align=center;verticalAlign=top;childLayout=stackLayout;horizontal=1;startSize=26;horizontalStack=0;resizeParent=1;resizeLast=0;collapsible=1;marginBottom=0;rounded=0;shadow=0;strokeWidth=1;" parent="WIyWlLk6GJQsqaUBKTNV-1" vertex="1">
          <mxGeometry x="1480" y="760" width="200" height="400" as="geometry">
            <mxRectangle x="950" y="110" width="160" height="26" as="alternateBounds" />
          </mxGeometry>
        </mxCell>
        <mxCell id="eILheGQvL8XLCJycdza4-3" value="+ seed: Int" style="text;align=left;verticalAlign=top;spacingLeft=4;spacingRight=4;overflow=hidden;rotatable=0;points=[[0,0.5],[1,0.5]];portConstraint=eastwest;rounded=0;shadow=0;html=0;" vertex="1" parent="C2V4Gt5A_Fa9hkwZDNJC-78">
          <mxGeometry y="26" width="200" height="26" as="geometry" />
        </mxCell>
        <mxCell id="C2V4Gt5A_Fa9hkwZDNJC-222" value="+ time: Int" style="text;align=left;verticalAlign=top;spacingLeft=4;spacingRight=4;overflow=hidden;rotatable=0;points=[[0,0.5],[1,0.5]];portConstraint=eastwest;rounded=0;shadow=0;html=0;" parent="C2V4Gt5A_Fa9hkwZDNJC-78" vertex="1">
          <mxGeometry y="52" width="200" height="26" as="geometry" />
        </mxCell>
        <mxCell id="C2V4Gt5A_Fa9hkwZDNJC-221" value="+ agent: &#xa;    BaseAgent" style="text;align=left;verticalAlign=top;spacingLeft=4;spacingRight=4;overflow=hidden;rotatable=0;points=[[0,0.5],[1,0.5]];portConstraint=eastwest;rounded=0;shadow=0;html=0;" parent="C2V4Gt5A_Fa9hkwZDNJC-78" vertex="1">
          <mxGeometry y="78" width="200" height="34" as="geometry" />
        </mxCell>
        <mxCell id="C2V4Gt5A_Fa9hkwZDNJC-224" value="+ env: &#xa;    BaseEnv" style="text;align=left;verticalAlign=top;spacingLeft=4;spacingRight=4;overflow=hidden;rotatable=0;points=[[0,0.5],[1,0.5]];portConstraint=eastwest;rounded=0;shadow=0;html=0;" parent="C2V4Gt5A_Fa9hkwZDNJC-78" vertex="1">
          <mxGeometry y="112" width="200" height="34" as="geometry" />
        </mxCell>
        <mxCell id="C2V4Gt5A_Fa9hkwZDNJC-39" value="+ randomizer_settings:&#xa;    Settings" style="text;align=left;verticalAlign=top;spacingLeft=4;spacingRight=4;overflow=hidden;rotatable=0;points=[[0,0.5],[1,0.5]];portConstraint=eastwest;rounded=0;shadow=0;html=0;" parent="C2V4Gt5A_Fa9hkwZDNJC-78" vertex="1">
          <mxGeometry y="146" width="200" height="40" as="geometry" />
        </mxCell>
        <mxCell id="C2V4Gt5A_Fa9hkwZDNJC-85" value="" style="line;html=1;strokeWidth=1;align=left;verticalAlign=middle;spacingTop=-1;spacingLeft=3;spacingRight=3;rotatable=0;labelPosition=right;points=[];portConstraint=eastwest;" parent="C2V4Gt5A_Fa9hkwZDNJC-78" vertex="1">
          <mxGeometry y="186" width="200" height="8" as="geometry" />
        </mxCell>
        <mxCell id="C2V4Gt5A_Fa9hkwZDNJC-223" value="$ __init__(&#xa;    agent,&#xa;    env,&#xa;    randomizer_settings,&#xa;)" style="text;align=left;verticalAlign=top;spacingLeft=4;spacingRight=4;overflow=hidden;rotatable=0;points=[[0,0.5],[1,0.5]];portConstraint=eastwest;" parent="C2V4Gt5A_Fa9hkwZDNJC-78" vertex="1">
          <mxGeometry y="194" width="200" height="82" as="geometry" />
        </mxCell>
        <mxCell id="eILheGQvL8XLCJycdza4-4" value="+ construct(&#xa;    universe: Universe,&#xa;): None" style="text;align=left;verticalAlign=top;spacingLeft=4;spacingRight=4;overflow=hidden;rotatable=0;points=[[0,0.5],[1,0.5]];portConstraint=eastwest;rounded=0;shadow=0;html=0;" vertex="1" parent="C2V4Gt5A_Fa9hkwZDNJC-78">
          <mxGeometry y="276" width="200" height="44" as="geometry" />
        </mxCell>
        <mxCell id="C2V4Gt5A_Fa9hkwZDNJC-233" value="+ on_step(): None" style="text;align=left;verticalAlign=top;spacingLeft=4;spacingRight=4;overflow=hidden;rotatable=0;points=[[0,0.5],[1,0.5]];portConstraint=eastwest;rounded=0;shadow=0;html=0;" parent="C2V4Gt5A_Fa9hkwZDNJC-78" vertex="1">
          <mxGeometry y="320" width="200" height="30" as="geometry" />
        </mxCell>
        <mxCell id="C2V4Gt5A_Fa9hkwZDNJC-234" value="+ on_reset(&#xa;    indices: Indices,&#xa;): None" style="text;align=left;verticalAlign=top;spacingLeft=4;spacingRight=4;overflow=hidden;rotatable=0;points=[[0,0.5],[1,0.5]];portConstraint=eastwest;rounded=0;shadow=0;html=0;" parent="C2V4Gt5A_Fa9hkwZDNJC-78" vertex="1">
          <mxGeometry y="350" width="200" height="50" as="geometry" />
        </mxCell>
        <mxCell id="C2V4Gt5A_Fa9hkwZDNJC-87" value="&amp;lt;&amp;lt;use&amp;gt;&amp;gt;" style="endArrow=open;startArrow=none;endFill=0;startFill=0;endSize=8;html=1;verticalAlign=bottom;dashed=1;labelBackgroundColor=none;rounded=0;entryX=0.5;entryY=0;entryDx=0;entryDy=0;exitX=1;exitY=0.5;exitDx=0;exitDy=0;" parent="WIyWlLk6GJQsqaUBKTNV-1" source="C2V4Gt5A_Fa9hkwZDNJC-29" target="C2V4Gt5A_Fa9hkwZDNJC-78" edge="1">
          <mxGeometry width="160" relative="1" as="geometry">
            <mxPoint x="1210" y="699" as="sourcePoint" />
            <mxPoint x="1610" y="730" as="targetPoint" />
            <Array as="points">
              <mxPoint x="1580" y="688" />
            </Array>
          </mxGeometry>
        </mxCell>
        <mxCell id="C2V4Gt5A_Fa9hkwZDNJC-88" value="*TerrainBuild" style="swimlane;fontStyle=3;align=center;verticalAlign=top;childLayout=stackLayout;horizontal=1;startSize=26;horizontalStack=0;resizeParent=1;resizeLast=0;collapsible=1;marginBottom=0;rounded=0;shadow=0;strokeWidth=1;" parent="WIyWlLk6GJQsqaUBKTNV-1" vertex="1">
          <mxGeometry x="2060" y="1120" width="160" height="34" as="geometry">
            <mxRectangle x="950" y="110" width="160" height="26" as="alternateBounds" />
          </mxGeometry>
        </mxCell>
        <mxCell id="C2V4Gt5A_Fa9hkwZDNJC-95" value="" style="line;html=1;strokeWidth=1;align=left;verticalAlign=middle;spacingTop=-1;spacingLeft=3;spacingRight=3;rotatable=0;labelPosition=right;points=[];portConstraint=eastwest;" parent="C2V4Gt5A_Fa9hkwZDNJC-88" vertex="1">
          <mxGeometry y="26" width="160" height="8" as="geometry" />
        </mxCell>
        <mxCell id="C2V4Gt5A_Fa9hkwZDNJC-97" value="" style="endArrow=block;endSize=10;endFill=0;shadow=0;strokeWidth=1;rounded=0;curved=0;edgeStyle=elbowEdgeStyle;elbow=vertical;entryX=0.5;entryY=1;entryDx=0;entryDy=0;exitX=0.5;exitY=0;exitDx=0;exitDy=0;" parent="WIyWlLk6GJQsqaUBKTNV-1" source="C2V4Gt5A_Fa9hkwZDNJC-88" target="C2V4Gt5A_Fa9hkwZDNJC-62" edge="1">
          <mxGeometry width="160" relative="1" as="geometry">
            <mxPoint x="2150" y="1110" as="sourcePoint" />
            <mxPoint x="2140" y="1110" as="targetPoint" />
            <Array as="points">
              <mxPoint x="2140" y="1110" />
            </Array>
          </mxGeometry>
        </mxCell>
        <mxCell id="C2V4Gt5A_Fa9hkwZDNJC-99" value="*TerrainBuilder" style="swimlane;fontStyle=3;align=center;verticalAlign=top;childLayout=stackLayout;horizontal=1;startSize=26;horizontalStack=0;resizeParent=1;resizeLast=0;collapsible=1;marginBottom=0;rounded=0;shadow=0;strokeWidth=1;" parent="WIyWlLk6GJQsqaUBKTNV-1" vertex="1">
          <mxGeometry x="1780" y="1600" width="160" height="34" as="geometry">
            <mxRectangle x="950" y="110" width="160" height="26" as="alternateBounds" />
          </mxGeometry>
        </mxCell>
        <mxCell id="C2V4Gt5A_Fa9hkwZDNJC-100" value="" style="line;html=1;strokeWidth=1;align=left;verticalAlign=middle;spacingTop=-1;spacingLeft=3;spacingRight=3;rotatable=0;labelPosition=right;points=[];portConstraint=eastwest;" parent="C2V4Gt5A_Fa9hkwZDNJC-99" vertex="1">
          <mxGeometry y="26" width="160" height="8" as="geometry" />
        </mxCell>
        <mxCell id="C2V4Gt5A_Fa9hkwZDNJC-101" value="" style="endArrow=block;endSize=10;endFill=0;shadow=0;strokeWidth=1;rounded=0;curved=0;edgeStyle=elbowEdgeStyle;elbow=vertical;exitX=0.5;exitY=0;exitDx=0;exitDy=0;entryX=0.5;entryY=1;entryDx=0;entryDy=0;" parent="WIyWlLk6GJQsqaUBKTNV-1" source="C2V4Gt5A_Fa9hkwZDNJC-99" target="C2V4Gt5A_Fa9hkwZDNJC-44" edge="1">
          <mxGeometry width="160" relative="1" as="geometry">
            <mxPoint x="1759.75" y="1680" as="sourcePoint" />
            <mxPoint x="1870" y="1580" as="targetPoint" />
            <Array as="points" />
          </mxGeometry>
        </mxCell>
        <mxCell id="C2V4Gt5A_Fa9hkwZDNJC-105" value="NewtonBaseEnv" style="swimlane;fontStyle=1;align=center;verticalAlign=top;childLayout=stackLayout;horizontal=1;startSize=26;horizontalStack=0;resizeParent=1;resizeLast=0;collapsible=1;marginBottom=0;rounded=0;shadow=0;strokeWidth=1;" parent="WIyWlLk6GJQsqaUBKTNV-1" vertex="1">
          <mxGeometry x="1200" y="1320" width="200" height="106" as="geometry">
            <mxRectangle x="950" y="110" width="160" height="26" as="alternateBounds" />
          </mxGeometry>
        </mxCell>
        <mxCell id="H8tCilP86C6Yw00kv8IR-7" value="+ reset_newton_positions: pt.Tensor" style="text;align=left;verticalAlign=top;spacingLeft=4;spacingRight=4;overflow=hidden;rotatable=0;points=[[0,0.5],[1,0.5]];portConstraint=eastwest;rounded=0;shadow=0;html=0;" parent="C2V4Gt5A_Fa9hkwZDNJC-105" vertex="1">
          <mxGeometry y="26" width="200" height="24" as="geometry" />
        </mxCell>
        <mxCell id="H8tCilP86C6Yw00kv8IR-8" value="+ reset_newton_rotations: pt.Tensor" style="text;align=left;verticalAlign=top;spacingLeft=4;spacingRight=4;overflow=hidden;rotatable=0;points=[[0,0.5],[1,0.5]];portConstraint=eastwest;rounded=0;shadow=0;html=0;" parent="C2V4Gt5A_Fa9hkwZDNJC-105" vertex="1">
          <mxGeometry y="50" width="200" height="24" as="geometry" />
        </mxCell>
        <mxCell id="H8tCilP86C6Yw00kv8IR-9" value="- inverse_control_frequency: Int" style="text;align=left;verticalAlign=top;spacingLeft=4;spacingRight=4;overflow=hidden;rotatable=0;points=[[0,0.5],[1,0.5]];portConstraint=eastwest;rounded=0;shadow=0;html=0;" parent="C2V4Gt5A_Fa9hkwZDNJC-105" vertex="1">
          <mxGeometry y="74" width="200" height="24" as="geometry" />
        </mxCell>
        <mxCell id="C2V4Gt5A_Fa9hkwZDNJC-106" value="" style="line;html=1;strokeWidth=1;align=left;verticalAlign=middle;spacingTop=-1;spacingLeft=3;spacingRight=3;rotatable=0;labelPosition=right;points=[];portConstraint=eastwest;" parent="C2V4Gt5A_Fa9hkwZDNJC-105" vertex="1">
          <mxGeometry y="98" width="200" height="8" as="geometry" />
        </mxCell>
        <mxCell id="C2V4Gt5A_Fa9hkwZDNJC-107" value="" style="endArrow=block;endSize=10;endFill=0;shadow=0;strokeWidth=1;rounded=0;curved=0;edgeStyle=elbowEdgeStyle;elbow=vertical;exitX=0.5;exitY=0;exitDx=0;exitDy=0;entryX=0.5;entryY=1;entryDx=0;entryDy=0;" parent="WIyWlLk6GJQsqaUBKTNV-1" source="C2V4Gt5A_Fa9hkwZDNJC-105" target="C2V4Gt5A_Fa9hkwZDNJC-27" edge="1">
          <mxGeometry width="160" relative="1" as="geometry">
            <mxPoint x="1370" y="1206" as="sourcePoint" />
            <mxPoint x="1370" y="1160" as="targetPoint" />
            <Array as="points" />
          </mxGeometry>
        </mxCell>
        <mxCell id="C2V4Gt5A_Fa9hkwZDNJC-108" value="Newton*Env" style="swimlane;fontStyle=3;align=center;verticalAlign=top;childLayout=stackLayout;horizontal=1;startSize=26;horizontalStack=0;resizeParent=1;resizeLast=0;collapsible=1;marginBottom=0;rounded=0;shadow=0;strokeWidth=1;" parent="WIyWlLk6GJQsqaUBKTNV-1" vertex="1">
          <mxGeometry x="1220" y="1480" width="160" height="34" as="geometry">
            <mxRectangle x="950" y="110" width="160" height="26" as="alternateBounds" />
          </mxGeometry>
        </mxCell>
        <mxCell id="C2V4Gt5A_Fa9hkwZDNJC-109" value="" style="line;html=1;strokeWidth=1;align=left;verticalAlign=middle;spacingTop=-1;spacingLeft=3;spacingRight=3;rotatable=0;labelPosition=right;points=[];portConstraint=eastwest;" parent="C2V4Gt5A_Fa9hkwZDNJC-108" vertex="1">
          <mxGeometry y="26" width="160" height="8" as="geometry" />
        </mxCell>
        <mxCell id="C2V4Gt5A_Fa9hkwZDNJC-110" value="" style="endArrow=block;endSize=10;endFill=0;shadow=0;strokeWidth=1;rounded=0;curved=0;edgeStyle=elbowEdgeStyle;elbow=vertical;exitX=0.5;exitY=0;exitDx=0;exitDy=0;entryX=0.5;entryY=1;entryDx=0;entryDy=0;" parent="WIyWlLk6GJQsqaUBKTNV-1" source="C2V4Gt5A_Fa9hkwZDNJC-108" target="C2V4Gt5A_Fa9hkwZDNJC-105" edge="1">
          <mxGeometry width="160" relative="1" as="geometry">
            <mxPoint x="1279.76" y="1314" as="sourcePoint" />
            <mxPoint x="1279.76" y="1290" as="targetPoint" />
            <Array as="points" />
          </mxGeometry>
        </mxCell>
        <mxCell id="C2V4Gt5A_Fa9hkwZDNJC-111" value="BaseTask" style="swimlane;fontStyle=1;align=center;verticalAlign=top;childLayout=stackLayout;horizontal=1;startSize=26;horizontalStack=0;resizeParent=1;resizeLast=0;collapsible=1;marginBottom=0;rounded=0;shadow=0;strokeWidth=1;" parent="WIyWlLk6GJQsqaUBKTNV-1" vertex="1">
          <mxGeometry x="2320" y="480" width="200" height="950" as="geometry">
            <mxRectangle x="230" y="140" width="160" height="26" as="alternateBounds" />
          </mxGeometry>
        </mxCell>
        <mxCell id="C2V4Gt5A_Fa9hkwZDNJC-112" value="+ env: BaseEnv" style="text;align=left;verticalAlign=top;spacingLeft=4;spacingRight=4;overflow=hidden;rotatable=0;points=[[0,0.5],[1,0.5]];portConstraint=eastwest;rounded=0;shadow=0;html=0;" parent="C2V4Gt5A_Fa9hkwZDNJC-111" vertex="1">
          <mxGeometry y="26" width="200" height="26" as="geometry" />
        </mxCell>
        <mxCell id="C2V4Gt5A_Fa9hkwZDNJC-114" value="+ num_envs: Int" style="text;align=left;verticalAlign=top;spacingLeft=4;spacingRight=4;overflow=hidden;rotatable=0;points=[[0,0.5],[1,0.5]];portConstraint=eastwest;rounded=0;shadow=0;html=0;" parent="C2V4Gt5A_Fa9hkwZDNJC-111" vertex="1">
          <mxGeometry y="52" width="200" height="30" as="geometry" />
        </mxCell>
        <mxCell id="C2V4Gt5A_Fa9hkwZDNJC-130" value="+ device: String" style="text;align=left;verticalAlign=top;spacingLeft=4;spacingRight=4;overflow=hidden;rotatable=0;points=[[0,0.5],[1,0.5]];portConstraint=eastwest;rounded=0;shadow=0;html=0;" parent="C2V4Gt5A_Fa9hkwZDNJC-111" vertex="1">
          <mxGeometry y="82" width="200" height="30" as="geometry" />
        </mxCell>
        <mxCell id="C2V4Gt5A_Fa9hkwZDNJC-131" value="+ headless: Bool" style="text;align=left;verticalAlign=top;spacingLeft=4;spacingRight=4;overflow=hidden;rotatable=0;points=[[0,0.5],[1,0.5]];portConstraint=eastwest;rounded=0;shadow=0;html=0;" parent="C2V4Gt5A_Fa9hkwZDNJC-111" vertex="1">
          <mxGeometry y="112" width="200" height="30" as="geometry" />
        </mxCell>
        <mxCell id="C2V4Gt5A_Fa9hkwZDNJC-132" value="+ playing: Bool" style="text;align=left;verticalAlign=top;spacingLeft=4;spacingRight=4;overflow=hidden;rotatable=0;points=[[0,0.5],[1,0.5]];portConstraint=eastwest;rounded=0;shadow=0;html=0;" parent="C2V4Gt5A_Fa9hkwZDNJC-111" vertex="1">
          <mxGeometry y="142" width="200" height="30" as="geometry" />
        </mxCell>
        <mxCell id="C2V4Gt5A_Fa9hkwZDNJC-115" value="+ max_episode_length: Int" style="text;align=left;verticalAlign=top;spacingLeft=4;spacingRight=4;overflow=hidden;rotatable=0;points=[[0,0.5],[1,0.5]];portConstraint=eastwest;" parent="C2V4Gt5A_Fa9hkwZDNJC-111" vertex="1">
          <mxGeometry y="172" width="200" height="30" as="geometry" />
        </mxCell>
        <mxCell id="C2V4Gt5A_Fa9hkwZDNJC-117" value="+ observation_space:&#xa;    gm.spaces.Space&#xa;" style="text;align=left;verticalAlign=top;spacingLeft=4;spacingRight=4;overflow=hidden;rotatable=0;points=[[0,0.5],[1,0.5]];portConstraint=eastwest;rounded=0;shadow=0;html=0;" parent="C2V4Gt5A_Fa9hkwZDNJC-111" vertex="1">
          <mxGeometry y="202" width="200" height="40" as="geometry" />
        </mxCell>
        <mxCell id="C2V4Gt5A_Fa9hkwZDNJC-133" value="+ action_space:&#xa;    gm.spaces.Box&#xa;" style="text;align=left;verticalAlign=top;spacingLeft=4;spacingRight=4;overflow=hidden;rotatable=0;points=[[0,0.5],[1,0.5]];portConstraint=eastwest;rounded=0;shadow=0;html=0;" parent="C2V4Gt5A_Fa9hkwZDNJC-111" vertex="1">
          <mxGeometry y="242" width="200" height="40" as="geometry" />
        </mxCell>
        <mxCell id="C2V4Gt5A_Fa9hkwZDNJC-134" value="+ reward_space:&#xa;    gm.spaces.Box&#xa;" style="text;align=left;verticalAlign=top;spacingLeft=4;spacingRight=4;overflow=hidden;rotatable=0;points=[[0,0.5],[1,0.5]];portConstraint=eastwest;rounded=0;shadow=0;html=0;" parent="C2V4Gt5A_Fa9hkwZDNJC-111" vertex="1">
          <mxGeometry y="282" width="200" height="40" as="geometry" />
        </mxCell>
        <mxCell id="C2V4Gt5A_Fa9hkwZDNJC-135" value="+ num_observations: Int" style="text;align=left;verticalAlign=top;spacingLeft=4;spacingRight=4;overflow=hidden;rotatable=0;points=[[0,0.5],[1,0.5]];portConstraint=eastwest;rounded=0;shadow=0;html=0;" parent="C2V4Gt5A_Fa9hkwZDNJC-111" vertex="1">
          <mxGeometry y="322" width="200" height="30" as="geometry" />
        </mxCell>
        <mxCell id="C2V4Gt5A_Fa9hkwZDNJC-136" value="+ num_actions: Int" style="text;align=left;verticalAlign=top;spacingLeft=4;spacingRight=4;overflow=hidden;rotatable=0;points=[[0,0.5],[1,0.5]];portConstraint=eastwest;rounded=0;shadow=0;html=0;" parent="C2V4Gt5A_Fa9hkwZDNJC-111" vertex="1">
          <mxGeometry y="352" width="200" height="30" as="geometry" />
        </mxCell>
        <mxCell id="C2V4Gt5A_Fa9hkwZDNJC-137" value="+ actions_buf: pt.Torch" style="text;align=left;verticalAlign=top;spacingLeft=4;spacingRight=4;overflow=hidden;rotatable=0;points=[[0,0.5],[1,0.5]];portConstraint=eastwest;rounded=0;shadow=0;html=0;" parent="C2V4Gt5A_Fa9hkwZDNJC-111" vertex="1">
          <mxGeometry y="382" width="200" height="30" as="geometry" />
        </mxCell>
        <mxCell id="C2V4Gt5A_Fa9hkwZDNJC-139" value="+ rewards_buf: pt.Torch" style="text;align=left;verticalAlign=top;spacingLeft=4;spacingRight=4;overflow=hidden;rotatable=0;points=[[0,0.5],[1,0.5]];portConstraint=eastwest;rounded=0;shadow=0;html=0;" parent="C2V4Gt5A_Fa9hkwZDNJC-111" vertex="1">
          <mxGeometry y="412" width="200" height="30" as="geometry" />
        </mxCell>
        <mxCell id="C2V4Gt5A_Fa9hkwZDNJC-138" value="+ dones_buf: pt.Torch[Bool]" style="text;align=left;verticalAlign=top;spacingLeft=4;spacingRight=4;overflow=hidden;rotatable=0;points=[[0,0.5],[1,0.5]];portConstraint=eastwest;rounded=0;shadow=0;html=0;" parent="C2V4Gt5A_Fa9hkwZDNJC-111" vertex="1">
          <mxGeometry y="442" width="200" height="30" as="geometry" />
        </mxCell>
        <mxCell id="C2V4Gt5A_Fa9hkwZDNJC-140" value="+ progress_buf: pt.Torch" style="text;align=left;verticalAlign=top;spacingLeft=4;spacingRight=4;overflow=hidden;rotatable=0;points=[[0,0.5],[1,0.5]];portConstraint=eastwest;rounded=0;shadow=0;html=0;" parent="C2V4Gt5A_Fa9hkwZDNJC-111" vertex="1">
          <mxGeometry y="472" width="200" height="28" as="geometry" />
        </mxCell>
        <mxCell id="C2V4Gt5A_Fa9hkwZDNJC-141" value="+ infos_buf: List[Infos]" style="text;align=left;verticalAlign=top;spacingLeft=4;spacingRight=4;overflow=hidden;rotatable=0;points=[[0,0.5],[1,0.5]];portConstraint=eastwest;rounded=0;shadow=0;html=0;" parent="C2V4Gt5A_Fa9hkwZDNJC-111" vertex="1">
          <mxGeometry y="500" width="200" height="30" as="geometry" />
        </mxCell>
        <mxCell id="C2V4Gt5A_Fa9hkwZDNJC-120" value="" style="line;html=1;strokeWidth=1;align=left;verticalAlign=middle;spacingTop=-1;spacingLeft=3;spacingRight=3;rotatable=0;labelPosition=right;points=[];portConstraint=eastwest;" parent="C2V4Gt5A_Fa9hkwZDNJC-111" vertex="1">
          <mxGeometry y="530" width="200" height="8" as="geometry" />
        </mxCell>
        <mxCell id="C2V4Gt5A_Fa9hkwZDNJC-121" value="$ __init__(&#xa;    training_env,&#xa;    playing_env,&#xa;    agent,&#xa;    num_envs,&#xa;    device,&#xa;    headless,&#xa;    playing,&#xa;    max_episode_length,&#xa;    observation_space: &#xa;        gm.spaces.Space&#xa;    action_space: gm.spaces.Box&#xa;    reward_space: gm.spaces.Box&#xa;)" style="text;align=left;verticalAlign=top;spacingLeft=4;spacingRight=4;overflow=hidden;rotatable=0;points=[[0,0.5],[1,0.5]];portConstraint=eastwest;" parent="C2V4Gt5A_Fa9hkwZDNJC-111" vertex="1">
          <mxGeometry y="538" width="200" height="206" as="geometry" />
        </mxCell>
        <mxCell id="C2V4Gt5A_Fa9hkwZDNJC-123" value="+ construct(&#xa;    universe: Universe,&#xa;): None" style="text;align=left;verticalAlign=top;spacingLeft=4;spacingRight=4;overflow=hidden;rotatable=0;points=[[0,0.5],[1,0.5]];portConstraint=eastwest;" parent="C2V4Gt5A_Fa9hkwZDNJC-111" vertex="1">
          <mxGeometry y="744" width="200" height="46" as="geometry" />
        </mxCell>
        <mxCell id="C2V4Gt5A_Fa9hkwZDNJC-124" value="+ step_async(&#xa;    actions: Actions,&#xa;): None" style="text;align=left;verticalAlign=top;spacingLeft=4;spacingRight=4;overflow=hidden;rotatable=0;points=[[0,0.5],[1,0.5]];portConstraint=eastwest;" parent="C2V4Gt5A_Fa9hkwZDNJC-111" vertex="1">
          <mxGeometry y="790" width="200" height="58" as="geometry" />
        </mxCell>
        <mxCell id="C2V4Gt5A_Fa9hkwZDNJC-142" value="+ step_wait(&#xa;): stb3.VecEnvStepReturn" style="text;align=left;verticalAlign=top;spacingLeft=4;spacingRight=4;overflow=hidden;rotatable=0;points=[[0,0.5],[1,0.5]];portConstraint=eastwest;" parent="C2V4Gt5A_Fa9hkwZDNJC-111" vertex="1">
          <mxGeometry y="848" width="200" height="40" as="geometry" />
        </mxCell>
        <mxCell id="C2V4Gt5A_Fa9hkwZDNJC-125" value="+ reset(): VecEnvObs" style="text;align=left;verticalAlign=top;spacingLeft=4;spacingRight=4;overflow=hidden;rotatable=0;points=[[0,0.5],[1,0.5]];portConstraint=eastwest;" parent="C2V4Gt5A_Fa9hkwZDNJC-111" vertex="1">
          <mxGeometry y="888" width="200" height="32" as="geometry" />
        </mxCell>
        <mxCell id="C2V4Gt5A_Fa9hkwZDNJC-126" value="+ close(): None" style="text;align=left;verticalAlign=top;spacingLeft=4;spacingRight=4;overflow=hidden;rotatable=0;points=[[0,0.5],[1,0.5]];portConstraint=eastwest;" parent="C2V4Gt5A_Fa9hkwZDNJC-111" vertex="1">
          <mxGeometry y="920" width="200" height="30" as="geometry" />
        </mxCell>
        <mxCell id="C2V4Gt5A_Fa9hkwZDNJC-127" value="sb3.VecEnv" style="swimlane;fontStyle=1;align=center;verticalAlign=top;childLayout=stackLayout;horizontal=1;startSize=26;horizontalStack=0;resizeParent=1;resizeLast=0;collapsible=1;marginBottom=0;rounded=0;shadow=0;strokeWidth=1;" parent="WIyWlLk6GJQsqaUBKTNV-1" vertex="1">
          <mxGeometry x="2340" y="320" width="160" height="34" as="geometry">
            <mxRectangle x="950" y="110" width="160" height="26" as="alternateBounds" />
          </mxGeometry>
        </mxCell>
        <mxCell id="C2V4Gt5A_Fa9hkwZDNJC-128" value="" style="line;html=1;strokeWidth=1;align=left;verticalAlign=middle;spacingTop=-1;spacingLeft=3;spacingRight=3;rotatable=0;labelPosition=right;points=[];portConstraint=eastwest;" parent="C2V4Gt5A_Fa9hkwZDNJC-127" vertex="1">
          <mxGeometry y="26" width="160" height="8" as="geometry" />
        </mxCell>
        <mxCell id="C2V4Gt5A_Fa9hkwZDNJC-129" value="" style="endArrow=block;endSize=10;endFill=0;shadow=0;strokeWidth=1;rounded=0;curved=0;edgeStyle=elbowEdgeStyle;elbow=vertical;exitX=0.5;exitY=0;exitDx=0;exitDy=0;entryX=0.5;entryY=1;entryDx=0;entryDy=0;" parent="WIyWlLk6GJQsqaUBKTNV-1" source="C2V4Gt5A_Fa9hkwZDNJC-111" target="C2V4Gt5A_Fa9hkwZDNJC-127" edge="1">
          <mxGeometry width="160" relative="1" as="geometry">
            <mxPoint x="2070" y="496" as="sourcePoint" />
            <mxPoint x="2070" y="450" as="targetPoint" />
            <Array as="points">
              <mxPoint x="2420" y="460" />
            </Array>
          </mxGeometry>
        </mxCell>
        <mxCell id="C2V4Gt5A_Fa9hkwZDNJC-150" value="&amp;lt;&amp;lt;use&amp;gt;&amp;gt;" style="endArrow=open;startArrow=none;endFill=0;startFill=0;endSize=8;html=1;verticalAlign=bottom;dashed=1;labelBackgroundColor=none;rounded=0;exitX=0;exitY=0.5;exitDx=0;exitDy=0;entryX=0.5;entryY=0;entryDx=0;entryDy=0;" parent="WIyWlLk6GJQsqaUBKTNV-1" source="C2V4Gt5A_Fa9hkwZDNJC-112" target="C2V4Gt5A_Fa9hkwZDNJC-27" edge="1">
          <mxGeometry width="160" relative="1" as="geometry">
            <mxPoint x="1710" y="430" as="sourcePoint" />
            <mxPoint x="890" y="445" as="targetPoint" />
            <Array as="points">
              <mxPoint x="1300" y="520" />
            </Array>
          </mxGeometry>
        </mxCell>
        <mxCell id="C2V4Gt5A_Fa9hkwZDNJC-152" value="NewtonBaseTask" style="swimlane;fontStyle=1;align=center;verticalAlign=top;childLayout=stackLayout;horizontal=1;startSize=26;horizontalStack=0;resizeParent=1;resizeLast=0;collapsible=1;marginBottom=0;rounded=0;shadow=0;strokeWidth=1;" parent="WIyWlLk6GJQsqaUBKTNV-1" vertex="1">
          <mxGeometry x="2320" y="1560" width="200" height="90" as="geometry">
            <mxRectangle x="950" y="110" width="160" height="26" as="alternateBounds" />
          </mxGeometry>
        </mxCell>
        <mxCell id="C2V4Gt5A_Fa9hkwZDNJC-155" value="+ animation_engine: &#xa;    AnimationEngine&#xa;" style="text;align=left;verticalAlign=top;spacingLeft=4;spacingRight=4;overflow=hidden;rotatable=0;points=[[0,0.5],[1,0.5]];portConstraint=eastwest;rounded=0;shadow=0;html=0;" parent="C2V4Gt5A_Fa9hkwZDNJC-152" vertex="1">
          <mxGeometry y="26" width="200" height="34" as="geometry" />
        </mxCell>
        <mxCell id="H8tCilP86C6Yw00kv8IR-10" value="+ last_actions_buf: Actions &#xa;" style="text;align=left;verticalAlign=top;spacingLeft=4;spacingRight=4;overflow=hidden;rotatable=0;points=[[0,0.5],[1,0.5]];portConstraint=eastwest;rounded=0;shadow=0;html=0;" parent="C2V4Gt5A_Fa9hkwZDNJC-152" vertex="1">
          <mxGeometry y="60" width="200" height="20" as="geometry" />
        </mxCell>
        <mxCell id="C2V4Gt5A_Fa9hkwZDNJC-153" value="" style="line;html=1;strokeWidth=1;align=left;verticalAlign=middle;spacingTop=-1;spacingLeft=3;spacingRight=3;rotatable=0;labelPosition=right;points=[];portConstraint=eastwest;" parent="C2V4Gt5A_Fa9hkwZDNJC-152" vertex="1">
          <mxGeometry y="80" width="200" height="8" as="geometry" />
        </mxCell>
        <mxCell id="C2V4Gt5A_Fa9hkwZDNJC-154" value="" style="endArrow=block;endSize=10;endFill=0;shadow=0;strokeWidth=1;rounded=0;curved=0;edgeStyle=elbowEdgeStyle;elbow=vertical;exitX=0.5;exitY=0;exitDx=0;exitDy=0;entryX=0.5;entryY=1;entryDx=0;entryDy=0;" parent="WIyWlLk6GJQsqaUBKTNV-1" source="C2V4Gt5A_Fa9hkwZDNJC-152" target="C2V4Gt5A_Fa9hkwZDNJC-111" edge="1">
          <mxGeometry width="160" relative="1" as="geometry">
            <mxPoint x="2419.78" y="1900" as="sourcePoint" />
            <mxPoint x="2420" y="1890" as="targetPoint" />
            <Array as="points" />
          </mxGeometry>
        </mxCell>
        <mxCell id="C2V4Gt5A_Fa9hkwZDNJC-156" value="BaseTaskCb" style="swimlane;fontStyle=1;align=center;verticalAlign=top;childLayout=stackLayout;horizontal=1;startSize=26;horizontalStack=0;resizeParent=1;resizeLast=0;collapsible=1;marginBottom=0;rounded=0;shadow=0;strokeWidth=1;" parent="WIyWlLk6GJQsqaUBKTNV-1" vertex="1">
          <mxGeometry x="2600" y="520" width="201" height="124" as="geometry">
            <mxRectangle x="950" y="110" width="160" height="26" as="alternateBounds" />
          </mxGeometry>
        </mxCell>
        <mxCell id="C2V4Gt5A_Fa9hkwZDNJC-182" value="+ task: BaseTask" style="text;align=left;verticalAlign=top;spacingLeft=4;spacingRight=4;overflow=hidden;rotatable=0;points=[[0,0.5],[1,0.5]];portConstraint=eastwest;" parent="C2V4Gt5A_Fa9hkwZDNJC-156" vertex="1">
          <mxGeometry y="26" width="201" height="30" as="geometry" />
        </mxCell>
        <mxCell id="C2V4Gt5A_Fa9hkwZDNJC-163" value="" style="line;html=1;strokeWidth=1;align=left;verticalAlign=middle;spacingTop=-1;spacingLeft=3;spacingRight=3;rotatable=0;labelPosition=right;points=[];portConstraint=eastwest;" parent="C2V4Gt5A_Fa9hkwZDNJC-156" vertex="1">
          <mxGeometry y="56" width="201" height="8" as="geometry" />
        </mxCell>
        <mxCell id="C2V4Gt5A_Fa9hkwZDNJC-164" value="$ __init__()" style="text;align=left;verticalAlign=top;spacingLeft=4;spacingRight=4;overflow=hidden;rotatable=0;points=[[0,0.5],[1,0.5]];portConstraint=eastwest;" parent="C2V4Gt5A_Fa9hkwZDNJC-156" vertex="1">
          <mxGeometry y="64" width="201" height="30" as="geometry" />
        </mxCell>
        <mxCell id="C2V4Gt5A_Fa9hkwZDNJC-169" value="# _on_step(): Bool" style="text;align=left;verticalAlign=top;spacingLeft=4;spacingRight=4;overflow=hidden;rotatable=0;points=[[0,0.5],[1,0.5]];portConstraint=eastwest;" parent="C2V4Gt5A_Fa9hkwZDNJC-156" vertex="1">
          <mxGeometry y="94" width="201" height="30" as="geometry" />
        </mxCell>
        <mxCell id="C2V4Gt5A_Fa9hkwZDNJC-165" value="" style="endArrow=circlePlus;startArrow=none;endFill=0;startFill=0;endSize=8;html=1;labelBackgroundColor=none;rounded=0;exitX=1;exitY=0;exitDx=0;exitDy=0;entryX=0;entryY=0;entryDx=0;entryDy=0;" parent="WIyWlLk6GJQsqaUBKTNV-1" source="C2V4Gt5A_Fa9hkwZDNJC-111" target="C2V4Gt5A_Fa9hkwZDNJC-156" edge="1">
          <mxGeometry width="160" relative="1" as="geometry">
            <mxPoint x="2550" y="450" as="sourcePoint" />
            <mxPoint x="2710" y="510" as="targetPoint" />
            <Array as="points">
              <mxPoint x="2560" y="480" />
            </Array>
          </mxGeometry>
        </mxCell>
        <mxCell id="C2V4Gt5A_Fa9hkwZDNJC-166" value="sb3.BaseCallback" style="swimlane;fontStyle=1;align=center;verticalAlign=top;childLayout=stackLayout;horizontal=1;startSize=26;horizontalStack=0;resizeParent=1;resizeLast=0;collapsible=1;marginBottom=0;rounded=0;shadow=0;strokeWidth=1;" parent="WIyWlLk6GJQsqaUBKTNV-1" vertex="1">
          <mxGeometry x="2620.5" y="320" width="160" height="34" as="geometry">
            <mxRectangle x="950" y="110" width="160" height="26" as="alternateBounds" />
          </mxGeometry>
        </mxCell>
        <mxCell id="C2V4Gt5A_Fa9hkwZDNJC-167" value="" style="line;html=1;strokeWidth=1;align=left;verticalAlign=middle;spacingTop=-1;spacingLeft=3;spacingRight=3;rotatable=0;labelPosition=right;points=[];portConstraint=eastwest;" parent="C2V4Gt5A_Fa9hkwZDNJC-166" vertex="1">
          <mxGeometry y="26" width="160" height="8" as="geometry" />
        </mxCell>
        <mxCell id="C2V4Gt5A_Fa9hkwZDNJC-168" value="" style="endArrow=block;endSize=10;endFill=0;shadow=0;strokeWidth=1;rounded=0;curved=0;edgeStyle=elbowEdgeStyle;elbow=vertical;exitX=0.5;exitY=0;exitDx=0;exitDy=0;entryX=0.5;entryY=1;entryDx=0;entryDy=0;" parent="WIyWlLk6GJQsqaUBKTNV-1" source="C2V4Gt5A_Fa9hkwZDNJC-156" target="C2V4Gt5A_Fa9hkwZDNJC-166" edge="1">
          <mxGeometry width="160" relative="1" as="geometry">
            <mxPoint x="2870" y="520" as="sourcePoint" />
            <mxPoint x="2870" y="474" as="targetPoint" />
            <Array as="points">
              <mxPoint x="2700" y="490" />
            </Array>
          </mxGeometry>
        </mxCell>
        <mxCell id="C2V4Gt5A_Fa9hkwZDNJC-170" value="NewtonBaseTaskCb" style="swimlane;fontStyle=1;align=center;verticalAlign=top;childLayout=stackLayout;horizontal=1;startSize=26;horizontalStack=0;resizeParent=1;resizeLast=0;collapsible=1;marginBottom=0;rounded=0;shadow=0;strokeWidth=1;" parent="WIyWlLk6GJQsqaUBKTNV-1" vertex="1">
          <mxGeometry x="2600" y="1600" width="200" height="64" as="geometry">
            <mxRectangle x="950" y="110" width="160" height="26" as="alternateBounds" />
          </mxGeometry>
        </mxCell>
        <mxCell id="C2V4Gt5A_Fa9hkwZDNJC-184" value="+ task: NewtonBaseTask" style="text;align=left;verticalAlign=top;spacingLeft=4;spacingRight=4;overflow=hidden;rotatable=0;points=[[0,0.5],[1,0.5]];portConstraint=eastwest;" parent="C2V4Gt5A_Fa9hkwZDNJC-170" vertex="1">
          <mxGeometry y="26" width="200" height="30" as="geometry" />
        </mxCell>
        <mxCell id="C2V4Gt5A_Fa9hkwZDNJC-171" value="" style="line;html=1;strokeWidth=1;align=left;verticalAlign=middle;spacingTop=-1;spacingLeft=3;spacingRight=3;rotatable=0;labelPosition=right;points=[];portConstraint=eastwest;" parent="C2V4Gt5A_Fa9hkwZDNJC-170" vertex="1">
          <mxGeometry y="56" width="200" height="8" as="geometry" />
        </mxCell>
        <mxCell id="C2V4Gt5A_Fa9hkwZDNJC-174" value="" style="endArrow=block;endSize=10;endFill=0;shadow=0;strokeWidth=1;rounded=0;curved=0;edgeStyle=elbowEdgeStyle;elbow=vertical;exitX=0.5;exitY=0;exitDx=0;exitDy=0;entryX=0.5;entryY=1;entryDx=0;entryDy=0;" parent="WIyWlLk6GJQsqaUBKTNV-1" source="C2V4Gt5A_Fa9hkwZDNJC-170" target="C2V4Gt5A_Fa9hkwZDNJC-156" edge="1">
          <mxGeometry width="160" relative="1" as="geometry">
            <mxPoint x="2830" y="700" as="sourcePoint" />
            <mxPoint x="2680" y="620" as="targetPoint" />
            <Array as="points">
              <mxPoint x="2710" y="650" />
            </Array>
          </mxGeometry>
        </mxCell>
        <mxCell id="C2V4Gt5A_Fa9hkwZDNJC-175" value="" style="endArrow=circlePlus;startArrow=none;endFill=0;startFill=0;endSize=8;html=1;labelBackgroundColor=none;rounded=0;exitX=1;exitY=0;exitDx=0;exitDy=0;entryX=0;entryY=0;entryDx=0;entryDy=0;" parent="WIyWlLk6GJQsqaUBKTNV-1" source="C2V4Gt5A_Fa9hkwZDNJC-152" target="C2V4Gt5A_Fa9hkwZDNJC-170" edge="1">
          <mxGeometry width="160" relative="1" as="geometry">
            <mxPoint x="2530" y="1540" as="sourcePoint" />
            <mxPoint x="2730" y="1540" as="targetPoint" />
            <Array as="points">
              <mxPoint x="2560" y="1560" />
            </Array>
          </mxGeometry>
        </mxCell>
        <mxCell id="C2V4Gt5A_Fa9hkwZDNJC-176" value="Newton*Task" style="swimlane;fontStyle=3;align=center;verticalAlign=top;childLayout=stackLayout;horizontal=1;startSize=26;horizontalStack=0;resizeParent=1;resizeLast=0;collapsible=1;marginBottom=0;rounded=0;shadow=0;strokeWidth=1;" parent="WIyWlLk6GJQsqaUBKTNV-1" vertex="1">
          <mxGeometry x="2340" y="1720" width="160" height="34" as="geometry">
            <mxRectangle x="950" y="110" width="160" height="26" as="alternateBounds" />
          </mxGeometry>
        </mxCell>
        <mxCell id="C2V4Gt5A_Fa9hkwZDNJC-177" value="" style="line;html=1;strokeWidth=1;align=left;verticalAlign=middle;spacingTop=-1;spacingLeft=3;spacingRight=3;rotatable=0;labelPosition=right;points=[];portConstraint=eastwest;" parent="C2V4Gt5A_Fa9hkwZDNJC-176" vertex="1">
          <mxGeometry y="26" width="160" height="8" as="geometry" />
        </mxCell>
        <mxCell id="C2V4Gt5A_Fa9hkwZDNJC-178" value="" style="endArrow=block;endSize=10;endFill=0;shadow=0;strokeWidth=1;rounded=0;curved=0;edgeStyle=elbowEdgeStyle;elbow=vertical;exitX=0.5;exitY=0;exitDx=0;exitDy=0;entryX=0.5;entryY=1;entryDx=0;entryDy=0;" parent="WIyWlLk6GJQsqaUBKTNV-1" source="C2V4Gt5A_Fa9hkwZDNJC-176" target="C2V4Gt5A_Fa9hkwZDNJC-152" edge="1">
          <mxGeometry width="160" relative="1" as="geometry">
            <mxPoint x="2440" y="1670" as="sourcePoint" />
            <mxPoint x="2440" y="1634" as="targetPoint" />
            <Array as="points" />
          </mxGeometry>
        </mxCell>
        <mxCell id="C2V4Gt5A_Fa9hkwZDNJC-179" value="Newton*TaskCb" style="swimlane;fontStyle=3;align=center;verticalAlign=top;childLayout=stackLayout;horizontal=1;startSize=26;horizontalStack=0;resizeParent=1;resizeLast=0;collapsible=1;marginBottom=0;rounded=0;shadow=0;strokeWidth=1;" parent="WIyWlLk6GJQsqaUBKTNV-1" vertex="1">
          <mxGeometry x="2620.5" y="1760" width="160" height="64" as="geometry">
            <mxRectangle x="950" y="110" width="160" height="26" as="alternateBounds" />
          </mxGeometry>
        </mxCell>
        <mxCell id="C2V4Gt5A_Fa9hkwZDNJC-185" value="+ task: Newton*Task" style="text;align=left;verticalAlign=top;spacingLeft=4;spacingRight=4;overflow=hidden;rotatable=0;points=[[0,0.5],[1,0.5]];portConstraint=eastwest;fontStyle=2" parent="C2V4Gt5A_Fa9hkwZDNJC-179" vertex="1">
          <mxGeometry y="26" width="160" height="30" as="geometry" />
        </mxCell>
        <mxCell id="C2V4Gt5A_Fa9hkwZDNJC-180" value="" style="line;html=1;strokeWidth=1;align=left;verticalAlign=middle;spacingTop=-1;spacingLeft=3;spacingRight=3;rotatable=0;labelPosition=right;points=[];portConstraint=eastwest;" parent="C2V4Gt5A_Fa9hkwZDNJC-179" vertex="1">
          <mxGeometry y="56" width="160" height="8" as="geometry" />
        </mxCell>
        <mxCell id="C2V4Gt5A_Fa9hkwZDNJC-181" value="" style="endArrow=circlePlus;startArrow=none;endFill=0;startFill=0;endSize=8;html=1;labelBackgroundColor=none;rounded=0;exitX=1;exitY=0;exitDx=0;exitDy=0;entryX=0;entryY=0;entryDx=0;entryDy=0;" parent="WIyWlLk6GJQsqaUBKTNV-1" source="C2V4Gt5A_Fa9hkwZDNJC-176" target="C2V4Gt5A_Fa9hkwZDNJC-179" edge="1">
          <mxGeometry width="160" relative="1" as="geometry">
            <mxPoint x="2530" y="1714" as="sourcePoint" />
            <mxPoint x="2711" y="1754" as="targetPoint" />
            <Array as="points">
              <mxPoint x="2580" y="1720" />
            </Array>
          </mxGeometry>
        </mxCell>
        <mxCell id="C2V4Gt5A_Fa9hkwZDNJC-183" value="" style="endArrow=block;endSize=10;endFill=0;shadow=0;strokeWidth=1;rounded=0;curved=0;edgeStyle=elbowEdgeStyle;elbow=vertical;exitX=0.5;exitY=0;exitDx=0;exitDy=0;entryX=0.5;entryY=1;entryDx=0;entryDy=0;" parent="WIyWlLk6GJQsqaUBKTNV-1" source="C2V4Gt5A_Fa9hkwZDNJC-179" target="C2V4Gt5A_Fa9hkwZDNJC-170" edge="1">
          <mxGeometry width="160" relative="1" as="geometry">
            <mxPoint x="2810" y="1712" as="sourcePoint" />
            <mxPoint x="2810" y="1660" as="targetPoint" />
            <Array as="points" />
          </mxGeometry>
        </mxCell>
        <mxCell id="C2V4Gt5A_Fa9hkwZDNJC-187" value="AnimationEngine" style="swimlane;fontStyle=1;align=center;verticalAlign=top;childLayout=stackLayout;horizontal=1;startSize=26;horizontalStack=0;resizeParent=1;resizeLast=0;collapsible=1;marginBottom=0;rounded=0;shadow=0;strokeWidth=1;" parent="WIyWlLk6GJQsqaUBKTNV-1" vertex="1">
          <mxGeometry x="2040" y="1640" width="200" height="34" as="geometry">
            <mxRectangle x="950" y="110" width="160" height="26" as="alternateBounds" />
          </mxGeometry>
        </mxCell>
        <mxCell id="C2V4Gt5A_Fa9hkwZDNJC-193" value="" style="line;html=1;strokeWidth=1;align=left;verticalAlign=middle;spacingTop=-1;spacingLeft=3;spacingRight=3;rotatable=0;labelPosition=right;points=[];portConstraint=eastwest;" parent="C2V4Gt5A_Fa9hkwZDNJC-187" vertex="1">
          <mxGeometry y="26" width="200" height="8" as="geometry" />
        </mxCell>
        <mxCell id="C2V4Gt5A_Fa9hkwZDNJC-199" value="&amp;lt;&amp;lt;use&amp;gt;&amp;gt;" style="endArrow=open;startArrow=none;endFill=0;startFill=0;endSize=8;html=1;verticalAlign=bottom;dashed=1;labelBackgroundColor=none;rounded=0;entryX=0.5;entryY=0;entryDx=0;entryDy=0;exitX=0;exitY=0.5;exitDx=0;exitDy=0;" parent="WIyWlLk6GJQsqaUBKTNV-1" source="C2V4Gt5A_Fa9hkwZDNJC-155" target="C2V4Gt5A_Fa9hkwZDNJC-187" edge="1">
          <mxGeometry width="160" relative="1" as="geometry">
            <mxPoint x="1850" y="1530" as="sourcePoint" />
            <mxPoint x="2030" y="1560" as="targetPoint" />
            <Array as="points">
              <mxPoint x="2140" y="1603" />
            </Array>
          </mxGeometry>
        </mxCell>
        <mxCell id="C2V4Gt5A_Fa9hkwZDNJC-200" value="BaseTaskWrapper" style="swimlane;fontStyle=1;align=center;verticalAlign=top;childLayout=stackLayout;horizontal=1;startSize=26;horizontalStack=0;resizeParent=1;resizeLast=0;collapsible=1;marginBottom=0;rounded=0;shadow=0;strokeWidth=1;" parent="WIyWlLk6GJQsqaUBKTNV-1" vertex="1">
          <mxGeometry x="2920" y="360" width="201" height="280" as="geometry">
            <mxRectangle x="950" y="110" width="160" height="26" as="alternateBounds" />
          </mxGeometry>
        </mxCell>
        <mxCell id="C2V4Gt5A_Fa9hkwZDNJC-201" value="+ env: BaseTask" style="text;align=left;verticalAlign=top;spacingLeft=4;spacingRight=4;overflow=hidden;rotatable=0;points=[[0,0.5],[1,0.5]];portConstraint=eastwest;" parent="C2V4Gt5A_Fa9hkwZDNJC-200" vertex="1">
          <mxGeometry y="26" width="201" height="30" as="geometry" />
        </mxCell>
        <mxCell id="C2V4Gt5A_Fa9hkwZDNJC-202" value="" style="line;html=1;strokeWidth=1;align=left;verticalAlign=middle;spacingTop=-1;spacingLeft=3;spacingRight=3;rotatable=0;labelPosition=right;points=[];portConstraint=eastwest;" parent="C2V4Gt5A_Fa9hkwZDNJC-200" vertex="1">
          <mxGeometry y="56" width="201" height="8" as="geometry" />
        </mxCell>
        <mxCell id="C2V4Gt5A_Fa9hkwZDNJC-203" value="$ __init__(&#xa;    env,&#xa;)" style="text;align=left;verticalAlign=top;spacingLeft=4;spacingRight=4;overflow=hidden;rotatable=0;points=[[0,0.5],[1,0.5]];portConstraint=eastwest;" parent="C2V4Gt5A_Fa9hkwZDNJC-200" vertex="1">
          <mxGeometry y="64" width="201" height="56" as="geometry" />
        </mxCell>
        <mxCell id="C2V4Gt5A_Fa9hkwZDNJC-206" value="+ step_async(&#xa;    actions: Actions,&#xa;): None" style="text;align=left;verticalAlign=top;spacingLeft=4;spacingRight=4;overflow=hidden;rotatable=0;points=[[0,0.5],[1,0.5]];portConstraint=eastwest;" parent="C2V4Gt5A_Fa9hkwZDNJC-200" vertex="1">
          <mxGeometry y="120" width="201" height="58" as="geometry" />
        </mxCell>
        <mxCell id="C2V4Gt5A_Fa9hkwZDNJC-207" value="+ step_wait(&#xa;): stb3.VecEnvStepReturn" style="text;align=left;verticalAlign=top;spacingLeft=4;spacingRight=4;overflow=hidden;rotatable=0;points=[[0,0.5],[1,0.5]];portConstraint=eastwest;" parent="C2V4Gt5A_Fa9hkwZDNJC-200" vertex="1">
          <mxGeometry y="178" width="201" height="40" as="geometry" />
        </mxCell>
        <mxCell id="C2V4Gt5A_Fa9hkwZDNJC-208" value="+ reset(): VecEnvObs" style="text;align=left;verticalAlign=top;spacingLeft=4;spacingRight=4;overflow=hidden;rotatable=0;points=[[0,0.5],[1,0.5]];portConstraint=eastwest;" parent="C2V4Gt5A_Fa9hkwZDNJC-200" vertex="1">
          <mxGeometry y="218" width="201" height="32" as="geometry" />
        </mxCell>
        <mxCell id="C2V4Gt5A_Fa9hkwZDNJC-209" value="+ close(): None" style="text;align=left;verticalAlign=top;spacingLeft=4;spacingRight=4;overflow=hidden;rotatable=0;points=[[0,0.5],[1,0.5]];portConstraint=eastwest;" parent="C2V4Gt5A_Fa9hkwZDNJC-200" vertex="1">
          <mxGeometry y="250" width="201" height="30" as="geometry" />
        </mxCell>
        <mxCell id="C2V4Gt5A_Fa9hkwZDNJC-205" value="&amp;lt;&amp;lt;use&amp;gt;&amp;gt;" style="endArrow=open;startArrow=none;endFill=0;startFill=0;endSize=8;html=1;verticalAlign=bottom;dashed=1;labelBackgroundColor=none;rounded=0;entryX=0.5;entryY=0;entryDx=0;entryDy=0;exitX=0;exitY=0.5;exitDx=0;exitDy=0;" parent="WIyWlLk6GJQsqaUBKTNV-1" source="C2V4Gt5A_Fa9hkwZDNJC-201" target="C2V4Gt5A_Fa9hkwZDNJC-111" edge="1">
          <mxGeometry width="160" relative="1" as="geometry">
            <mxPoint x="2890" y="400" as="sourcePoint" />
            <mxPoint x="2250" y="434" as="targetPoint" />
            <Array as="points">
              <mxPoint x="2420" y="400" />
            </Array>
          </mxGeometry>
        </mxCell>
        <mxCell id="C2V4Gt5A_Fa9hkwZDNJC-211" value="NewtonBaseTaskWrapper" style="swimlane;fontStyle=1;align=center;verticalAlign=top;childLayout=stackLayout;horizontal=1;startSize=26;horizontalStack=0;resizeParent=1;resizeLast=0;collapsible=1;marginBottom=0;rounded=0;shadow=0;strokeWidth=1;" parent="WIyWlLk6GJQsqaUBKTNV-1" vertex="1">
          <mxGeometry x="2920" y="1480" width="200" height="64" as="geometry">
            <mxRectangle x="950" y="110" width="160" height="26" as="alternateBounds" />
          </mxGeometry>
        </mxCell>
        <mxCell id="C2V4Gt5A_Fa9hkwZDNJC-212" value="+ task: NewtonBaseTask" style="text;align=left;verticalAlign=top;spacingLeft=4;spacingRight=4;overflow=hidden;rotatable=0;points=[[0,0.5],[1,0.5]];portConstraint=eastwest;" parent="C2V4Gt5A_Fa9hkwZDNJC-211" vertex="1">
          <mxGeometry y="26" width="200" height="30" as="geometry" />
        </mxCell>
        <mxCell id="C2V4Gt5A_Fa9hkwZDNJC-213" value="" style="line;html=1;strokeWidth=1;align=left;verticalAlign=middle;spacingTop=-1;spacingLeft=3;spacingRight=3;rotatable=0;labelPosition=right;points=[];portConstraint=eastwest;" parent="C2V4Gt5A_Fa9hkwZDNJC-211" vertex="1">
          <mxGeometry y="56" width="200" height="8" as="geometry" />
        </mxCell>
        <mxCell id="C2V4Gt5A_Fa9hkwZDNJC-214" value="" style="endArrow=block;endSize=10;endFill=0;shadow=0;strokeWidth=1;rounded=0;curved=0;edgeStyle=elbowEdgeStyle;elbow=vertical;exitX=0.5;exitY=0;exitDx=0;exitDy=0;entryX=0.5;entryY=1;entryDx=0;entryDy=0;" parent="WIyWlLk6GJQsqaUBKTNV-1" source="C2V4Gt5A_Fa9hkwZDNJC-211" target="C2V4Gt5A_Fa9hkwZDNJC-200" edge="1">
          <mxGeometry width="160" relative="1" as="geometry">
            <mxPoint x="3220" y="800" as="sourcePoint" />
            <mxPoint x="3020" y="730" as="targetPoint" />
            <Array as="points">
              <mxPoint x="3020" y="740" />
            </Array>
          </mxGeometry>
        </mxCell>
        <mxCell id="C2V4Gt5A_Fa9hkwZDNJC-216" value="&amp;lt;&amp;lt;use&amp;gt;&amp;gt;" style="endArrow=open;startArrow=none;endFill=0;startFill=0;endSize=8;html=1;verticalAlign=bottom;dashed=1;labelBackgroundColor=none;rounded=0;exitX=0;exitY=0.5;exitDx=0;exitDy=0;entryX=0.5;entryY=0;entryDx=0;entryDy=0;" parent="WIyWlLk6GJQsqaUBKTNV-1" source="C2V4Gt5A_Fa9hkwZDNJC-212" target="C2V4Gt5A_Fa9hkwZDNJC-152" edge="1">
          <mxGeometry width="160" relative="1" as="geometry">
            <mxPoint x="2920" y="1483" as="sourcePoint" />
            <mxPoint x="2740" y="1520" as="targetPoint" />
            <Array as="points">
              <mxPoint x="2420" y="1520" />
            </Array>
          </mxGeometry>
        </mxCell>
        <mxCell id="C2V4Gt5A_Fa9hkwZDNJC-225" value="NewtonBaseDomainRandomizer" style="swimlane;fontStyle=1;align=center;verticalAlign=top;childLayout=stackLayout;horizontal=1;startSize=26;horizontalStack=0;resizeParent=1;resizeLast=0;collapsible=1;marginBottom=0;rounded=0;shadow=0;strokeWidth=1;" parent="WIyWlLk6GJQsqaUBKTNV-1" vertex="1">
          <mxGeometry x="1480" y="1200" width="200" height="102" as="geometry">
            <mxRectangle x="950" y="110" width="160" height="26" as="alternateBounds" />
          </mxGeometry>
        </mxCell>
        <mxCell id="C2V4Gt5A_Fa9hkwZDNJC-235" value="+ agent: &#xa;    NewtonBaseAgent" style="text;align=left;verticalAlign=top;spacingLeft=4;spacingRight=4;overflow=hidden;rotatable=0;points=[[0,0.5],[1,0.5]];portConstraint=eastwest;rounded=0;shadow=0;html=0;" parent="C2V4Gt5A_Fa9hkwZDNJC-225" vertex="1">
          <mxGeometry y="26" width="200" height="34" as="geometry" />
        </mxCell>
        <mxCell id="C2V4Gt5A_Fa9hkwZDNJC-236" value="+ env: &#xa;    NewtonBaseEnv" style="text;align=left;verticalAlign=top;spacingLeft=4;spacingRight=4;overflow=hidden;rotatable=0;points=[[0,0.5],[1,0.5]];portConstraint=eastwest;rounded=0;shadow=0;html=0;" parent="C2V4Gt5A_Fa9hkwZDNJC-225" vertex="1">
          <mxGeometry y="60" width="200" height="34" as="geometry" />
        </mxCell>
        <mxCell id="C2V4Gt5A_Fa9hkwZDNJC-230" value="" style="line;html=1;strokeWidth=1;align=left;verticalAlign=middle;spacingTop=-1;spacingLeft=3;spacingRight=3;rotatable=0;labelPosition=right;points=[];portConstraint=eastwest;" parent="C2V4Gt5A_Fa9hkwZDNJC-225" vertex="1">
          <mxGeometry y="94" width="200" height="8" as="geometry" />
        </mxCell>
        <mxCell id="C2V4Gt5A_Fa9hkwZDNJC-237" value="" style="endArrow=block;endSize=10;endFill=0;shadow=0;strokeWidth=1;rounded=0;curved=0;edgeStyle=elbowEdgeStyle;elbow=vertical;exitX=0.5;exitY=0;exitDx=0;exitDy=0;entryX=0.5;entryY=1;entryDx=0;entryDy=0;" parent="WIyWlLk6GJQsqaUBKTNV-1" source="C2V4Gt5A_Fa9hkwZDNJC-225" target="C2V4Gt5A_Fa9hkwZDNJC-78" edge="1">
          <mxGeometry width="160" relative="1" as="geometry">
            <mxPoint x="1439.71" y="1166" as="sourcePoint" />
            <mxPoint x="1439.71" y="1120" as="targetPoint" />
            <Array as="points" />
          </mxGeometry>
        </mxCell>
        <mxCell id="C2V4Gt5A_Fa9hkwZDNJC-242" value="Newton*TaskWrapper" style="swimlane;fontStyle=3;align=center;verticalAlign=top;childLayout=stackLayout;horizontal=1;startSize=26;horizontalStack=0;resizeParent=1;resizeLast=0;collapsible=1;marginBottom=0;rounded=0;shadow=0;strokeWidth=1;" parent="WIyWlLk6GJQsqaUBKTNV-1" vertex="1">
          <mxGeometry x="2920" y="1640" width="200" height="64" as="geometry">
            <mxRectangle x="950" y="110" width="160" height="26" as="alternateBounds" />
          </mxGeometry>
        </mxCell>
        <mxCell id="C2V4Gt5A_Fa9hkwZDNJC-245" value="+ task: Newton*Task" style="text;align=left;verticalAlign=top;spacingLeft=4;spacingRight=4;overflow=hidden;rotatable=0;points=[[0,0.5],[1,0.5]];portConstraint=eastwest;fontStyle=2" parent="C2V4Gt5A_Fa9hkwZDNJC-242" vertex="1">
          <mxGeometry y="26" width="200" height="30" as="geometry" />
        </mxCell>
        <mxCell id="C2V4Gt5A_Fa9hkwZDNJC-243" value="" style="line;html=1;strokeWidth=1;align=left;verticalAlign=middle;spacingTop=-1;spacingLeft=3;spacingRight=3;rotatable=0;labelPosition=right;points=[];portConstraint=eastwest;" parent="C2V4Gt5A_Fa9hkwZDNJC-242" vertex="1">
          <mxGeometry y="56" width="200" height="8" as="geometry" />
        </mxCell>
        <mxCell id="C2V4Gt5A_Fa9hkwZDNJC-244" value="" style="endArrow=block;endSize=10;endFill=0;shadow=0;strokeWidth=1;rounded=0;curved=0;edgeStyle=elbowEdgeStyle;elbow=vertical;exitX=0.5;exitY=0;exitDx=0;exitDy=0;entryX=0.5;entryY=1;entryDx=0;entryDy=0;" parent="WIyWlLk6GJQsqaUBKTNV-1" source="C2V4Gt5A_Fa9hkwZDNJC-242" target="C2V4Gt5A_Fa9hkwZDNJC-211" edge="1">
          <mxGeometry width="160" relative="1" as="geometry">
            <mxPoint x="3200.44" y="1576" as="sourcePoint" />
            <mxPoint x="3200.44" y="1520" as="targetPoint" />
            <Array as="points" />
          </mxGeometry>
        </mxCell>
        <mxCell id="C2V4Gt5A_Fa9hkwZDNJC-246" value="&amp;lt;&amp;lt;use&amp;gt;&amp;gt;" style="endArrow=open;startArrow=none;endFill=0;startFill=0;endSize=8;html=1;verticalAlign=bottom;dashed=1;labelBackgroundColor=none;rounded=0;exitX=0;exitY=0.5;exitDx=0;exitDy=0;entryX=0.5;entryY=0;entryDx=0;entryDy=0;" parent="WIyWlLk6GJQsqaUBKTNV-1" source="C2V4Gt5A_Fa9hkwZDNJC-245" target="C2V4Gt5A_Fa9hkwZDNJC-176" edge="1">
          <mxGeometry width="160" relative="1" as="geometry">
            <mxPoint x="2930" y="1531" as="sourcePoint" />
            <mxPoint x="2430" y="1570" as="targetPoint" />
            <Array as="points">
              <mxPoint x="2420" y="1680" />
            </Array>
          </mxGeometry>
        </mxCell>
        <mxCell id="0CTnTl75vqh0oRSoPkbF-0" value="&amp;lt;&amp;lt;use&amp;gt;&amp;gt;" style="endArrow=open;startArrow=none;endFill=0;startFill=0;endSize=8;html=1;verticalAlign=bottom;dashed=1;labelBackgroundColor=none;rounded=0;exitX=0;exitY=0.5;exitDx=0;exitDy=0;entryX=0.5;entryY=0;entryDx=0;entryDy=0;" parent="WIyWlLk6GJQsqaUBKTNV-1" source="C2V4Gt5A_Fa9hkwZDNJC-236" target="C2V4Gt5A_Fa9hkwZDNJC-105" edge="1">
          <mxGeometry width="160" relative="1" as="geometry">
            <mxPoint x="1350" y="1491" as="sourcePoint" />
            <mxPoint x="1610" y="1540" as="targetPoint" />
            <Array as="points">
              <mxPoint x="1300" y="1277" />
            </Array>
          </mxGeometry>
        </mxCell>
        <mxCell id="0CTnTl75vqh0oRSoPkbF-2" value="&amp;lt;&amp;lt;use&amp;gt;&amp;gt;" style="endArrow=open;startArrow=none;endFill=0;startFill=0;endSize=8;html=1;verticalAlign=bottom;dashed=1;labelBackgroundColor=none;rounded=0;exitX=0;exitY=0.5;exitDx=0;exitDy=0;entryX=0.5;entryY=0;entryDx=0;entryDy=0;" parent="WIyWlLk6GJQsqaUBKTNV-1" source="C2V4Gt5A_Fa9hkwZDNJC-224" target="C2V4Gt5A_Fa9hkwZDNJC-27" edge="1">
          <mxGeometry width="160" relative="1" as="geometry">
            <mxPoint x="1470" y="843.5" as="sourcePoint" />
            <mxPoint x="1290" y="886.5" as="targetPoint" />
            <Array as="points">
              <mxPoint x="1440" y="890" />
              <mxPoint x="1440" y="520" />
              <mxPoint x="1300" y="520" />
            </Array>
          </mxGeometry>
        </mxCell>
        <mxCell id="0CTnTl75vqh0oRSoPkbF-3" value="&amp;lt;&amp;lt;use&amp;gt;&amp;gt;" style="endArrow=open;startArrow=none;endFill=0;startFill=0;endSize=8;html=1;verticalAlign=bottom;dashed=1;labelBackgroundColor=none;rounded=0;exitX=0;exitY=0.5;exitDx=0;exitDy=0;entryX=0.5;entryY=0;entryDx=0;entryDy=0;" parent="WIyWlLk6GJQsqaUBKTNV-1" source="C2V4Gt5A_Fa9hkwZDNJC-221" target="zkfFHV4jXpPFQw0GAbJ--0" edge="1">
          <mxGeometry width="160" relative="1" as="geometry">
            <mxPoint x="1490" y="873" as="sourcePoint" />
            <mxPoint x="390" y="620" as="targetPoint" />
            <Array as="points">
              <mxPoint x="1460" y="855" />
              <mxPoint x="1460" y="500" />
              <mxPoint x="380" y="500" />
            </Array>
          </mxGeometry>
        </mxCell>
        <mxCell id="eILheGQvL8XLCJycdza4-5" value="Universe" style="swimlane;fontStyle=1;align=center;verticalAlign=top;childLayout=stackLayout;horizontal=1;startSize=26;horizontalStack=0;resizeParent=1;resizeLast=0;collapsible=1;marginBottom=0;rounded=0;shadow=0;strokeWidth=1;" vertex="1" parent="WIyWlLk6GJQsqaUBKTNV-1">
          <mxGeometry x="1560" y="2040" width="200" height="390" as="geometry">
            <mxRectangle x="230" y="140" width="160" height="26" as="alternateBounds" />
          </mxGeometry>
        </mxCell>
        <mxCell id="eILheGQvL8XLCJycdza4-6" value="+ sim_app: ov.SimulationApp" style="text;align=left;verticalAlign=top;spacingLeft=4;spacingRight=4;overflow=hidden;rotatable=0;points=[[0,0.5],[1,0.5]];portConstraint=eastwest;" vertex="1" parent="eILheGQvL8XLCJycdza4-5">
          <mxGeometry y="26" width="200" height="26" as="geometry" />
        </mxCell>
        <mxCell id="eILheGQvL8XLCJycdza4-16" value="+ physics_device: String" style="text;align=left;verticalAlign=top;spacingLeft=4;spacingRight=4;overflow=hidden;rotatable=0;points=[[0,0.5],[1,0.5]];portConstraint=eastwest;" vertex="1" parent="eILheGQvL8XLCJycdza4-5">
          <mxGeometry y="52" width="200" height="26" as="geometry" />
        </mxCell>
        <mxCell id="eILheGQvL8XLCJycdza4-17" value="+ headless: Bool" style="text;align=left;verticalAlign=top;spacingLeft=4;spacingRight=4;overflow=hidden;rotatable=0;points=[[0,0.5],[1,0.5]];portConstraint=eastwest;" vertex="1" parent="eILheGQvL8XLCJycdza4-5">
          <mxGeometry y="78" width="200" height="26" as="geometry" />
        </mxCell>
        <mxCell id="eILheGQvL8XLCJycdza4-8" value="- world: ov.World" style="text;align=left;verticalAlign=top;spacingLeft=4;spacingRight=4;overflow=hidden;rotatable=0;points=[[0,0.5],[1,0.5]];portConstraint=eastwest;rounded=0;shadow=0;html=0;" vertex="1" parent="eILheGQvL8XLCJycdza4-5">
          <mxGeometry y="104" width="200" height="26" as="geometry" />
        </mxCell>
        <mxCell id="eILheGQvL8XLCJycdza4-15" value="- world_settings: Settings" style="text;align=left;verticalAlign=top;spacingLeft=4;spacingRight=4;overflow=hidden;rotatable=0;points=[[0,0.5],[1,0.5]];portConstraint=eastwest;rounded=0;shadow=0;html=0;" vertex="1" parent="eILheGQvL8XLCJycdza4-5">
          <mxGeometry y="130" width="200" height="26" as="geometry" />
        </mxCell>
        <mxCell id="eILheGQvL8XLCJycdza4-9" value="- is_constructed: Bool" style="text;align=left;verticalAlign=top;spacingLeft=4;spacingRight=4;overflow=hidden;rotatable=0;points=[[0,0.5],[1,0.5]];portConstraint=eastwest;rounded=0;shadow=0;html=0;" vertex="1" parent="eILheGQvL8XLCJycdza4-5">
          <mxGeometry y="156" width="200" height="26" as="geometry" />
        </mxCell>
        <mxCell id="eILheGQvL8XLCJycdza4-10" value="" style="line;html=1;strokeWidth=1;align=left;verticalAlign=middle;spacingTop=-1;spacingLeft=3;spacingRight=3;rotatable=0;labelPosition=right;points=[];portConstraint=eastwest;" vertex="1" parent="eILheGQvL8XLCJycdza4-5">
          <mxGeometry y="182" width="200" height="8" as="geometry" />
        </mxCell>
        <mxCell id="eILheGQvL8XLCJycdza4-11" value="$ __init__(&#xa;    headless: Bool,&#xa;    world_settings: Settings,&#xa;)" style="text;align=left;verticalAlign=top;spacingLeft=4;spacingRight=4;overflow=hidden;rotatable=0;points=[[0,0.5],[1,0.5]];portConstraint=eastwest;" vertex="1" parent="eILheGQvL8XLCJycdza4-5">
          <mxGeometry y="190" width="200" height="60" as="geometry" />
        </mxCell>
        <mxCell id="eILheGQvL8XLCJycdza4-19" value="+ add_to_scene(&#xa;    prim: ov.XFormPrim,&#xa;): None" style="text;align=left;verticalAlign=top;spacingLeft=4;spacingRight=4;overflow=hidden;rotatable=0;points=[[0,0.5],[1,0.5]];portConstraint=eastwest;" vertex="1" parent="eILheGQvL8XLCJycdza4-5">
          <mxGeometry y="250" width="200" height="50" as="geometry" />
        </mxCell>
        <mxCell id="eILheGQvL8XLCJycdza4-12" value="+ construct(): None" style="text;align=left;verticalAlign=top;spacingLeft=4;spacingRight=4;overflow=hidden;rotatable=0;points=[[0,0.5],[1,0.5]];portConstraint=eastwest;" vertex="1" parent="eILheGQvL8XLCJycdza4-5">
          <mxGeometry y="300" width="200" height="30" as="geometry" />
        </mxCell>
        <mxCell id="eILheGQvL8XLCJycdza4-13" value="+ step(): None" style="text;align=left;verticalAlign=top;spacingLeft=4;spacingRight=4;overflow=hidden;rotatable=0;points=[[0,0.5],[1,0.5]];portConstraint=eastwest;" vertex="1" parent="eILheGQvL8XLCJycdza4-5">
          <mxGeometry y="330" width="200" height="30" as="geometry" />
        </mxCell>
        <mxCell id="eILheGQvL8XLCJycdza4-18" value="+ reset(): None" style="text;align=left;verticalAlign=top;spacingLeft=4;spacingRight=4;overflow=hidden;rotatable=0;points=[[0,0.5],[1,0.5]];portConstraint=eastwest;" vertex="1" parent="eILheGQvL8XLCJycdza4-5">
          <mxGeometry y="360" width="200" height="30" as="geometry" />
        </mxCell>
        <mxCell id="eILheGQvL8XLCJycdza4-21" value="&amp;lt;&amp;lt;use&amp;gt;&amp;gt;" style="endArrow=open;startArrow=none;endFill=0;startFill=0;endSize=8;html=1;verticalAlign=bottom;dashed=1;labelBackgroundColor=none;rounded=0;exitX=1;exitY=0.5;exitDx=0;exitDy=0;entryX=0.5;entryY=0;entryDx=0;entryDy=0;" edge="1" parent="WIyWlLk6GJQsqaUBKTNV-1" source="WYmgZ2lt331Zo_KYKc5n-25" target="eILheGQvL8XLCJycdza4-5">
          <mxGeometry width="160" relative="1" as="geometry">
            <mxPoint x="1440" y="1720" as="sourcePoint" />
            <mxPoint x="1700" y="1769" as="targetPoint" />
            <Array as="points">
              <mxPoint x="1660" y="1470" />
            </Array>
          </mxGeometry>
        </mxCell>
        <mxCell id="eILheGQvL8XLCJycdza4-22" value="&amp;lt;&amp;lt;use&amp;gt;&amp;gt;" style="endArrow=open;startArrow=none;endFill=0;startFill=0;endSize=8;html=1;verticalAlign=bottom;dashed=1;labelBackgroundColor=none;rounded=0;exitX=1;exitY=0.5;exitDx=0;exitDy=0;" edge="1" parent="WIyWlLk6GJQsqaUBKTNV-1" source="H8tCilP86C6Yw00kv8IR-4">
          <mxGeometry width="160" relative="1" as="geometry">
            <mxPoint x="850" y="1475" as="sourcePoint" />
            <mxPoint x="1660" y="2040" as="targetPoint" />
            <Array as="points">
              <mxPoint x="1660" y="1425" />
            </Array>
          </mxGeometry>
        </mxCell>
        <mxCell id="eILheGQvL8XLCJycdza4-23" value="&amp;lt;&amp;lt;use&amp;gt;&amp;gt;" style="endArrow=open;startArrow=none;endFill=0;startFill=0;endSize=8;html=1;verticalAlign=bottom;dashed=1;labelBackgroundColor=none;rounded=0;entryX=0.5;entryY=0;entryDx=0;entryDy=0;exitX=1;exitY=0.5;exitDx=0;exitDy=0;" edge="1" parent="WIyWlLk6GJQsqaUBKTNV-1" source="C2V4Gt5A_Fa9hkwZDNJC-30" target="eILheGQvL8XLCJycdza4-5">
          <mxGeometry width="160" relative="1" as="geometry">
            <mxPoint x="1410" y="698" as="sourcePoint" />
            <mxPoint x="1590" y="770" as="targetPoint" />
            <Array as="points">
              <mxPoint x="1660" y="655" />
            </Array>
          </mxGeometry>
        </mxCell>
        <mxCell id="eILheGQvL8XLCJycdza4-24" value="&amp;lt;&amp;lt;use&amp;gt;&amp;gt;" style="endArrow=open;startArrow=none;endFill=0;startFill=0;endSize=8;html=1;verticalAlign=bottom;dashed=1;labelBackgroundColor=none;rounded=0;exitX=1;exitY=0.5;exitDx=0;exitDy=0;entryX=0.5;entryY=0;entryDx=0;entryDy=0;" edge="1" parent="WIyWlLk6GJQsqaUBKTNV-1" source="zkfFHV4jXpPFQw0GAbJ--3" target="eILheGQvL8XLCJycdza4-5">
          <mxGeometry width="160" relative="1" as="geometry">
            <mxPoint x="850" y="1475" as="sourcePoint" />
            <mxPoint x="1670" y="2050" as="targetPoint" />
            <Array as="points">
              <mxPoint x="1660" y="731" />
            </Array>
          </mxGeometry>
        </mxCell>
      </root>
    </mxGraphModel>
  </diagram>
</mxfile>
